<?xml version="1.0" encoding="UTF-8" standalone="no"?>
<!-- Created with Inkscape (http://www.inkscape.org/) -->

<svg
   width="16"
   height="16"
   viewBox="0 0 4.2333332 4.2333335"
   version="1.1"
   id="svg34336"
   xmlns="http://www.w3.org/2000/svg"
   xmlns:svg="http://www.w3.org/2000/svg">
  <defs
     id="defs34333" />
  <g
     id="layer1">
    <g
       id="g34884"
       transform="matrix(0.27497939,0,0,0.27497939,-27.053339,-26.39364)">
      <g
         id="g946"
         transform="matrix(0.03931544,0,0,0.03931544,98.167935,95.609198)">
        <path
           d="M 11.381314,397.23606 H 392.39531 V 16.22206 H 11.381314 Z"
           style="fill:none;fill-opacity:1;fill-rule:nonzero;stroke:none;stroke-width:0.00952535"
           id="path19" />
        <g
           id="g748"
           transform="translate(1.4093501,-4.0232557)">
          <path
             d="m 246.6413,371.54893 c 0,2.67606 -45.02133,4.84536 -100.55732,4.84536 -55.535975,0 -100.557656,-2.1693 -100.557656,-4.84536 0,-2.67607 45.021681,-4.84536 100.557656,-4.84536 55.53599,0 100.55732,2.16929 100.55732,4.84536"
             style="fill:#371a45;fill-opacity:1;fill-rule:nonzero;stroke:none;stroke-width:0.0112867"
             id="path21" />
          <path
             d="m 122.01858,345.52416 c 0,0 3.39389,15.42886 2.06658,23.53832 H 78.672179 c 0,0 -1.474368,-6.48756 3.391642,-10.02593 4.865679,-3.53837 16.820504,-14.5722 16.820504,-14.5722 l 23.134255,1.05981"
             style="fill:#606060;fill-opacity:1;fill-rule:nonzero;stroke:none;stroke-width:0.0112867"
             id="path23" />
          <path
             d="m 85.247785,362.80178 h -3.809239 c 0.415345,-0.76299 1.00563,-1.48984 1.838596,-2.09594 2.987578,-2.17268 8.459348,-6.98982 12.393863,-10.52819 -2.24378,3.62414 -5.611715,8.21894 -8.07785,10.01352 -1.051913,0.76411 -1.806995,1.66591 -2.34537,2.61061"
             style="fill:#bfbfbf;fill-opacity:1;fill-rule:nonzero;stroke:none;stroke-width:0.0112867"
             id="path25" />
          <path
             d="M 122.24883,366.99815 H 84.027698 c 0.09704,-1.28216 0.416483,-2.78668 1.220087,-4.19637 h 11.88484 c 9.066575,0 16.226825,-7.01918 16.937885,-15.57559 l 6.24829,0.28668 c 0.72461,3.68848 2.40632,13.16476 1.93003,19.48528"
             style="fill:#544b58;fill-opacity:1;fill-rule:nonzero;stroke:none;stroke-width:0.0112867"
             id="path27" />
          <path
             d="m 84.027698,366.99815 h -3.507894 c -0.02595,-1.14898 0.126418,-2.74039 0.918742,-4.19637 h 3.809239 c -0.803604,1.40969 -1.123019,2.91421 -1.220087,4.19637"
             style="fill:#968d9a;fill-opacity:1;fill-rule:nonzero;stroke:none;stroke-width:0.0112867"
             id="path29" />
          <path
             d="m 145.61559,345.52416 c 0,0 -3.3939,15.42886 -2.06659,23.53832 h 45.41299 c 0,0 1.47403,-6.48756 -3.39165,-10.02593 -4.86567,-3.53837 -16.8205,-14.5722 -16.8205,-14.5722 l -23.13425,1.05981"
             style="fill:#606060;fill-opacity:1;fill-rule:nonzero;stroke:none;stroke-width:0.0112867"
             id="path31" />
          <path
             d="M 124.08516,371.12681 H 78.672179 c -0.963768,0 -1.799199,-0.66704 -2.012743,-1.60609 -0.07252,-0.31941 -1.708126,-7.86341 4.189938,-12.15347 4.713312,-3.42776 16.516891,-14.31035 16.635411,-14.41983 0.83859,-0.77201 2.14333,-0.72008 2.916465,0.11742 0.77313,0.83747 0.72122,2.14333 -0.11624,2.91647 -0.492095,0.45485 -12.100421,11.15572 -17.007856,14.72457 -2.42099,1.76185 -2.796843,4.53948 -2.757338,6.29231 h 41.729024 c 0.59931,-7.94919 -2.21558,-20.89047 -2.24605,-21.03042 -0.24492,-1.114 0.45936,-2.21445 1.57336,-2.45937 1.114,-0.24492 2.21444,0.45936 2.45824,1.57223 0.14221,0.64559 3.46273,15.91193 2.08803,24.31597 -0.16366,0.99774 -1.02597,1.73024 -2.03725,1.73024"
             style="fill:#371a45;fill-opacity:1;fill-rule:nonzero;stroke:none;stroke-width:0.0112867"
             id="path33" />
          <path
             d="M 188.96199,371.12681 H 143.549 c -1.01128,0 -1.87359,-0.7325 -2.03725,-1.73024 -1.37471,-8.40405 1.94582,-23.67038 2.08804,-24.31598 0.24492,-1.11399 1.34536,-1.81715 2.45935,-1.57223 1.11287,0.24492 1.81717,1.34537 1.57224,2.45937 -0.0305,0.13995 -2.84536,13.08123 -2.24605,21.03042 h 41.73016 c 0.0384,-1.75056 -0.33635,-4.53046 -2.75847,-6.29231 -4.90743,-3.56884 -16.51575,-14.26971 -17.00673,-14.72456 -0.8386,-0.77314 -0.89052,-2.07901 -0.11743,-2.91648 0.77314,-0.8386 2.07901,-0.89051 2.91648,-0.11742 0.11851,0.10949 11.92209,10.99208 16.6354,14.41983 5.8984,4.29007 4.26297,11.83406 4.18961,12.15348 -0.21332,0.93905 -1.04854,1.60608 -2.01241,1.60608"
             style="fill:#371a45;fill-opacity:1;fill-rule:nonzero;stroke:none;stroke-width:0.0112867"
             id="path35" />
          <path
             d="m 92.190205,263.00292 c 0,0 -5.260705,47.82268 2.99548,81.29213 l 28.899475,1.32392 9.43678,-46.59243 h 3.68622 l 6.19298,46.59243 h 31.55297 l 1.76863,-75.04948 -84.532535,-7.56657"
             style="fill:#ffffff;fill-opacity:1;fill-rule:nonzero;stroke:none;stroke-width:0.0112867"
             id="path37" />
          <path
             d="m 172.93718,343.55465 h -27.72905 l -5.95371,-44.80013 c -0.13657,-1.02595 -1.01128,-1.79232 -2.04626,-1.79232 h -3.68622 c -0.98195,0 -1.82844,0.69187 -2.02371,1.65463 l -9.08462,44.85881 -25.581205,-1.17156 c -0.31038,-1.34085 -0.60045,-2.70429 -0.86907,-4.08577 1.88374,0.22347 4.097055,0.37471 6.642195,0.37471 2.15462,0 4.54626,-0.1083 7.17719,-0.37132 14.74487,-1.47404 17.3995,-38.92542 17.3995,-38.92542 0,0 -8.85551,-9.78553 -7.61172,-9.78553 0.15575,0 0.46839,0.15238 0.97629,0.49662 4.5711,3.09592 20.49431,4.42323 20.49431,4.42323 0,0 5.01353,34.20759 9.43678,44.23353 1.47516,3.34198 3.88937,4.45597 6.45484,4.45597 0.70541,0 1.42324,-0.0835 2.1343,-0.22911 5.1343,-1.04854 9.05302,-5.24153 10.01239,-10.39276 2.48532,-13.34082 6.62075,-44.52359 -6.51128,-54.94004 -0.49548,-0.39391 -1.03498,-0.77878 -1.61286,-1.1535 l 1.44808,-2.58916 3.11963,0.38826 c 0.14786,0.84312 0.39729,1.77991 0.72235,2.78328 0.45147,1.24154 1.01128,2.59932 1.81151,3.91084 1.54514,2.66139 3.54852,4.68057 5.19073,5.82391 0.35214,0.26862 0.69526,0.48758 1.01467,0.66478 l -1.32506,56.16805 m 1.39053,-58.94118 c -1.08014,-1.38939 -2.42212,-3.16252 -3.62302,-5.272 -1.0237,-1.70427 -1.83183,-3.37132 -2.48646,-4.80246 l 6.32844,0.78667 -0.21896,9.28779"
             style="fill:#c3bac7;fill-opacity:1;fill-rule:nonzero;stroke:none;stroke-width:0.0112867"
             id="path39" />
          <path
             d="m 176.34125,287.93513 c -0.12642,0.17044 -0.47743,0.14673 -1.0158,-0.0531 -0.53386,-0.20429 -1.2833,-0.55306 -2.07788,-1.16028 -1.64221,-1.14334 -3.64559,-3.16251 -5.19073,-5.82391 -0.80023,-1.31151 -1.36004,-2.6693 -1.81151,-3.91083 -0.40857,-1.26072 -0.69751,-2.41647 -0.81602,-3.41308 -0.26976,-1.98532 -0.005,-3.26974 0.41196,-3.30699 0.8386,-0.097 2.02482,4.34875 4.86342,9.07447 2.72121,4.7799 6.17154,7.83746 5.63656,8.59365"
             style="fill:#371a45;fill-opacity:1;fill-rule:nonzero;stroke:none;stroke-width:0.0112867"
             id="path41" />
          <path
             d="m 91.080727,279.00062 c -0.13092,-0.16705 -0.04858,-0.49774 0.203164,-0.94695 0.256201,-0.4447 0.678324,-1.01128 1.203154,-1.69751 1.06433,-1.35215 2.56094,-3.14446 4.19525,-5.15801 3.27651,-4.01465 5.897275,-7.38485 6.642195,-6.98531 0.7562,0.3894 -0.78442,4.66026 -4.259585,8.9221 -1.72572,2.12866 -3.59592,3.8115 -5.10607,4.81827 -0.74718,0.51355 -1.41196,0.85103 -1.91422,1.0237 -0.498871,0.17495 -0.83183,0.18962 -0.963888,0.0237"
             style="fill:#371a45;fill-opacity:1;fill-rule:nonzero;stroke:none;stroke-width:0.0112867"
             id="path43" />
          <path
             d="m 124.08629,347.6833 c -0.0316,0 -0.0632,0 -0.0948,-0.002 l -28.899475,-1.32392 c -0.91421,-0.0417 -1.69074,-0.67946 -1.9097,-1.56772 -8.249419,-33.43784 -3.097052,-81.53028 -3.044004,-82.01221 0.124143,-1.13319 1.137689,-1.95146 2.277644,-1.82618 1.13318,0.12415 1.95033,1.14334 1.82618,2.27764 -0.0519,0.46727 -4.971768,46.42766 2.59029,79.07544 l 25.581195,1.17155 9.08463,-44.85881 c 0.19526,-0.96276 1.04176,-1.65462 2.0237,-1.65462 h 3.68622 c 1.03498,0 1.90969,0.76636 2.04627,1.79231 l 5.9537,44.80013 h 27.72904 l 1.72235,-73.03369 c 0.0271,-1.13995 0.96162,-2.04289 2.11287,-2.01467 1.13881,0.026 2.04175,0.97178 2.01466,2.11173 l -1.76974,75.04948 c -0.026,1.12077 -0.94244,2.0158 -2.06321,2.0158 h -31.55297 c -1.03498,0 -1.91083,-0.76636 -2.04627,-1.79232 l -5.95484,-44.80012 h -0.19074 l -9.10043,44.93782 c -0.1964,0.96613 -1.04514,1.65462 -2.02257,1.65462"
             style="fill:#371a45;fill-opacity:1;fill-rule:nonzero;stroke:none;stroke-width:0.0112867"
             id="path45" />
          <path
             d="m 97.840305,181.80785 -12.459336,-5.60383 1.179456,-15.62863 c 0,0 5.67719,-1.62189 10.05076,-1.17946 0,0 4.521435,-7.32277 -3.63655,-6.48756 0,0 10.222315,-11.35325 10.075595,-16.26859 -0.14787,-4.9142 -11.304711,-7.9616 -17.669261,-6.19185 -6.364539,1.76862 -32.511435,39.66243 -28.776455,53.57098 3.735319,13.90967 28.703097,29.48976 28.703097,29.48976 l 12.532694,-31.70082"
             style="fill:#ffcda4;fill-opacity:1;fill-rule:nonzero;stroke:none;stroke-width:0.0112867"
             id="path47" />
          <path
             d="m 87.297449,135.18268 c 4.706536,-1.30813 12.028186,0.018 15.585731,2.78441 0.11517,-0.47742 0.17833,-0.92549 0.16705,-1.32731 -0.14787,-4.9142 -11.304711,-7.9616 -17.669261,-6.19185 -6.364539,1.76862 -32.511435,39.66243 -28.776342,53.57098 0.396613,1.47742 1.035099,2.97403 1.855639,4.46838 -3.343672,-14.11734 22.512137,-51.54615 28.837183,-53.30461"
             style="fill:#ffffff;fill-opacity:1;fill-rule:nonzero;stroke:none;stroke-width:0.0112867"
             id="path49" />
          <path
             d="m 79.44757,206.93872 c -7.466455,-5.5395 -18.5688,-14.96272 -20.849268,-23.4548 -0.07438,-0.27653 -0.134762,-0.56997 -0.181151,-0.87697 0.240971,-1.57562 0.646838,-3.26749 1.188824,-5.03949 2.596946,8.89614 13.698504,18.41643 21.28403,24.07443 -0.592548,1.96275 -1.074486,3.7291 -1.442435,5.29683"
             style="fill:#c39787;fill-opacity:1;fill-rule:nonzero;stroke:none;stroke-width:0.0112867"
             id="path51" />
          <path
             d="m 58.417151,182.60695 c -0.295823,-1.95372 -0.02754,-4.50226 0.760496,-7.51805 0.04741,0.76637 0.157448,1.48419 0.335664,2.14785 0.02946,0.10948 0.06061,0.2201 0.09266,0.33071 -0.541986,1.772 -0.947853,3.46387 -1.188824,5.03949"
             style="fill:#c3bac7;fill-opacity:1;fill-rule:nonzero;stroke:none;stroke-width:0.0112867"
             id="path53" />
          <path
             d="m 82.554788,154.43206 c -0.08804,-0.0699 -0.09479,-0.24717 -0.04396,-0.49321 0.06434,-0.23703 0.144475,-0.57449 0.264115,-0.96614 0.216696,-0.79798 0.47516,-1.89504 0.656877,-3.16366 0.382619,-2.52934 0.537249,-4.67944 0.990974,-4.71556 0.435666,-0.0474 1.027089,2.17607 0.612857,4.96387 -0.198638,1.386 -0.686227,2.62302 -1.225727,3.4097 -0.282162,0.39051 -0.538374,0.67833 -0.77878,0.82957 -0.226862,0.15914 -0.388259,0.20541 -0.476297,0.13543"
             style="fill:#371a45;fill-opacity:1;fill-rule:nonzero;stroke:none;stroke-width:0.0112867"
             id="path55" />
          <path
             d="m 84.619121,140.4242 c 0.917604,-1.66704 1.766365,-3.36793 2.507891,-5.09141 0.369075,-0.86117 0.717829,-1.72686 1.002254,-2.59367 0.282174,-0.86005 0.52822,-1.73476 0.620773,-2.52595 0.09598,-0.81829 0.836343,-1.40293 1.654616,-1.307 0.817159,0.096 1.40293,0.83634 1.307,1.6535 -0.01576,0.13318 -0.04858,0.26071 -0.09598,0.38035 l -0.02026,0.0474 c -0.417608,1.03047 -0.940176,1.89051 -1.480814,2.72685 -0.541751,0.83295 -1.125282,1.61173 -1.721207,2.37358 -1.194138,1.52145 -2.45937,2.9571 -3.774261,4.33634"
             style="fill:#371a45;fill-opacity:1;fill-rule:nonzero;stroke:none;stroke-width:0.0112867"
             id="path57" />
          <path
             d="m 89.77035,141.80118 c 0.917604,-1.66817 1.766365,-3.36795 2.507895,-5.09254 0.36907,-0.86004 0.71783,-1.72686 1.00112,-2.59256 0.2833,-0.86116 0.52935,-1.73587 0.6219,-2.52707 0.096,-0.81829 0.83635,-1.40293 1.65462,-1.307 0.81716,0.096 1.4018,0.83634 1.30587,1.65463 -0.0147,0.13318 -0.0486,0.25959 -0.096,0.37923 l -0.0192,0.0474 c -0.41761,1.03047 -0.94018,1.89051 -1.48081,2.72685 -0.54175,0.83296 -1.12529,1.61286 -1.72121,2.37472 -1.19414,1.52031 -2.459371,2.9571 -3.774262,4.33634"
             style="fill:#371a45;fill-opacity:1;fill-rule:nonzero;stroke:none;stroke-width:0.0112867"
             id="path59" />
          <path
             d="m 93.997195,144.18717 c 0.91761,-1.66816 1.76524,-3.36906 2.50791,-5.09141 0.36906,-0.86118 0.71783,-1.72798 1.00111,-2.59368 0.2833,-0.86116 0.52935,-1.73588 0.6219,-2.52707 0.096,-0.81829 0.83634,-1.40293 1.65463,-1.307 0.817145,0.096 1.401795,0.83634 1.305855,1.65463 -0.0158,0.13318 -0.0486,0.25959 -0.096,0.37923 l -0.0192,0.0474 c -0.41761,1.03047 -0.94018,1.89051 -1.481935,2.72685 -0.54175,0.83296 -1.12415,1.61286 -1.72008,2.37471 -1.19413,1.52032 -2.45936,2.95598 -3.77426,4.33633"
             style="fill:#371a45;fill-opacity:1;fill-rule:nonzero;stroke:none;stroke-width:0.0112867"
             id="path61" />
          <path
             d="m 85.305348,215.57301 c -0.373589,0 -0.750568,-0.10155 -1.090292,-0.31378 -1.048525,-0.65349 -25.70242,-16.17715 -29.604103,-30.70421 -2.407106,-8.96386 5.748744,-24.48301 10.824691,-32.93672 5.148406,-8.57334 14.561593,-21.81596 19.392281,-23.15908 5.174928,-1.43905 13.04173,-0.0801 17.178285,2.96613 2.49548,1.83747 3.06658,3.81714 3.10721,5.15236 0.12077,4.04062 -4.74604,10.69185 -8.021425,14.6941 0.9289,0.37471 1.6456,0.96162 2.14673,1.75959 1.787795,2.85213 -0.41196,6.7054 -0.87133,7.44919 -0.41422,0.67268 -1.17607,1.05078 -1.96388,0.96952 -2.69526,-0.27314 -6.050771,0.34876 -7.897271,0.76749 l -0.958234,12.69862 11.138805,5.00901 c 1.03949,0.46727 1.503365,1.68848 1.0361,2.72912 -0.46726,1.0395 -1.6896,1.50338 -2.72911,1.03611 l -12.459334,-5.60382 c -0.792324,-0.35554 -1.27765,-1.17043 -1.212184,-2.03724 l 1.179457,-15.62863 c 0.06541,-0.8623 0.660266,-1.59255 1.492094,-1.82956 0.222348,-0.0643 4.994336,-1.421 9.385977,-1.33184 0.37133,-0.91534 0.52145,-1.7799 0.36005,-2.03498 -0.0654,-0.1038 -0.69074,-0.45259 -2.5553,-0.26298 -0.84763,0.087 -1.663657,-0.35778 -2.050789,-1.11851 -0.386008,-0.76072 -0.264104,-1.68171 0.305871,-2.31602 4.015788,-4.46048 9.632023,-12.01013 9.547373,-14.82502 -0.0248,-0.80135 -0.90519,-1.56659 -1.428885,-1.95258 -3.14785,-2.31716 -9.641058,-3.41986 -13.624123,-2.31265 -2.086894,0.58014 -9.548728,8.96725 -16.958985,21.30695 -7.945242,13.23135 -11.824464,24.34983 -10.376725,29.74034 3.484078,12.97288 27.559184,28.12183 27.801853,28.27307 0.967263,0.60383 1.261843,1.87697 0.658014,2.84424 -0.390522,0.6264 -1.064331,0.97178 -1.752821,0.97178"
             style="fill:#371a45;fill-opacity:1;fill-rule:nonzero;stroke:none;stroke-width:0.0112867"
             id="path63" />
          <path
             d="m 203.11544,222.2073 -11.55866,29.19406 -8.15121,-2.94807 c -7.86229,9.3239 -5.8623,25.16585 -5.8623,25.16585 L 92.190205,263.00292 c 0.91987,-15.74714 3.33183,-29.57782 5.43792,-39.22678 l -0.23026,-0.0531 c 0,0 -14.891611,-3.72685 -16.661353,-9.4774 -1.319406,-4.2878 5.805855,-23.19294 9.515776,-32.5304 0.99435,-2.50338 3.836337,-3.70314 6.326167,-2.67493 10.129765,4.18057 32.552965,5.49096 53.209805,11.61396 24.37579,7.2246 46.98747,22.1162 50.59694,25.16021 3.60948,3.04853 2.73024,6.39277 2.73024,6.39277"
             style="fill:#f91228;fill-opacity:1;fill-rule:nonzero;stroke:none;stroke-width:0.0112867"
             id="path65" />
          <path
             d="m 168.45075,202.04708 c -3.25734,8.68395 -15.39839,12.15799 -27.11732,7.76183 -11.72006,-4.39727 -18.57897,-14.99996 -15.32051,-23.68391 3.25733,-8.68282 15.39839,-12.15799 27.11732,-7.7607 11.71893,4.39614 18.57897,14.99996 15.32051,23.68278"
             style="fill:#ffcda4;fill-opacity:1;fill-rule:nonzero;stroke:none;stroke-width:0.0112867"
             id="path67" />
          <path
             d="m 142.93274,180.57986 c -1.87922,0 -3.6975,0.24154 -5.3984,0.72912 -3.83295,1.09593 -6.55191,3.32166 -7.65687,6.26634 -2.41082,6.42663 3.49887,14.83857 12.90517,18.36791 9.40741,3.52934 19.3916,1.08014 21.80242,-5.34649 1.10497,-2.94356 0.52145,-6.40856 -1.64446,-9.75618 -2.41648,-3.73588 -6.41534,-6.79344 -11.2607,-8.61171 -2.91873,-1.09481 -5.90179,-1.64899 -8.74716,-1.64899 m 8.4966,35.23581 c -3.74039,0 -7.67153,-0.68736 -11.54625,-2.14108 -13.83179,-5.1896 -21.78775,-18.1986 -17.73585,-28.99993 2.04627,-5.45484 6.70428,-9.46951 13.11509,-11.30471 5.96612,-1.70654 12.82729,-1.307 19.31824,1.12866 6.48983,2.43566 11.9221,6.64558 15.29229,11.85776 3.62302,5.59818 4.48983,11.6862 2.44356,17.14105 -2.91759,7.77537 -11.27423,12.31825 -20.88708,12.31825"
             style="fill:#ffffff;fill-opacity:1;fill-rule:nonzero;stroke:none;stroke-width:0.0112867"
             id="path69" />
          <path
             d="m 142.93274,182.64419 c -1.70202,0 -3.3273,0.21783 -4.82955,0.64899 -3.18849,0.91196 -5.42325,2.69073 -6.29232,5.00675 -1.98418,5.28668 3.48307,12.62865 11.6975,15.71103 4.10382,1.5395 8.59027,1.89955 12.30809,0.98871 3.48871,-0.85665 5.91647,-2.67719 6.83632,-5.12753 0.86909,-2.31715 0.35554,-5.1264 -1.44468,-7.90969 -2.17832,-3.3668 -5.8194,-6.13655 -10.2528,-7.8002 -2.64672,-0.99323 -5.42098,-1.51806 -8.02256,-1.51806 m 8.54851,26.98752 c -3.10044,0 -6.32051,-0.59141 -9.42322,-1.75508 -10.63429,-3.99095 -16.96498,-13.42322 -14.11283,-21.02704 1.33972,-3.57109 4.54401,-6.2449 9.02142,-7.52481 1.87246,-0.53724 3.87923,-0.80924 5.96612,-0.80924 3.13657,0 6.32279,0.59931 9.4729,1.78103 5.25618,1.97291 9.61397,5.31939 12.26858,9.42322 2.52935,3.9097 3.18398,8.02934 1.84425,11.60268 -1.39277,3.71106 -4.93453,6.51241 -9.71894,7.68621 -1.69751,0.41649 -3.48758,0.62303 -5.31828,0.62303 m -8.55415,-35.24033 c -2.45372,0 -4.84649,0.31942 -7.09705,0.96389 -5.76635,1.6501 -9.93902,5.21782 -11.75053,10.044 -3.65123,9.73586 3.76297,21.55299 16.52817,26.34191 3.55643,1.33409 7.19751,2.01129 10.82165,2.01129 9.0124,0 16.45143,-4.31037 18.95368,-10.97966 1.81151,-4.82843 1.01467,-10.25956 -2.24266,-15.29568 -3.13205,-4.84197 -8.2054,-8.76521 -14.28439,-11.04625 -3.61173,-1.35439 -7.33745,-2.0395 -10.92887,-2.0395 m 8.50224,43.48862 c -4.12189,0 -8.25054,-0.76411 -12.27198,-2.27314 -14.89612,-5.58915 -23.39498,-19.79001 -18.94239,-31.65681 2.28103,-6.08237 7.42323,-10.54399 14.47965,-12.5643 6.3905,-1.82843 13.71102,-1.40857 20.61168,1.18058 6.9018,2.58917 12.69072,7.08802 16.30019,12.66815 3.98645,6.16139 4.92436,12.90516 2.64221,18.98867 -3.11286,8.29681 -12.06995,13.65685 -22.81936,13.65685"
             style="fill:#371a45;fill-opacity:1;fill-rule:nonzero;stroke:none;stroke-width:0.0112867"
             id="path71" />
          <path
             d="m 175.29271,271.2591 -10.71329,-1.33295 5.54062,-9.90404 c 2.36004,0.64447 4.47065,1.03048 5.737,1.23024 -0.66026,4.01128 -0.67042,7.66816 -0.56433,10.00675 m -26.37013,-3.2799 -54.550665,-6.78554 c 1.01693,-15.20877 3.40745,-28.42882 5.27313,-36.97734 0.0119,-0.0519 0.0203,-0.10273 0.0271,-0.15463 -0.44131,14.63541 3.657985,37.0462 32.227895,39.79901 1.70993,0.16478 3.34424,0.2404 4.91422,0.2404 6.48983,0 11.79681,-1.30925 16.0214,-3.10383 l -3.91307,6.98193 m 8.11848,-17.15008 c -7.18734,-1.30247 -9.80923,-5.44806 -9.80923,-5.44806 1.66478,0.33634 3.25056,0.48871 4.76184,0.48871 1.65123,0 3.21218,-0.18285 4.68171,-0.50903 -0.26411,1.63544 -0.24944,3.50565 0.36568,5.46838 m 29.36111,-11.33744 c -0.75621,-1.28894 -1.84199,-2.5316 -2.82506,-3.52256 l 0.45147,-0.80474 c 0.24718,0.1038 0.49888,0.2088 0.75508,0.31264 0.47742,0.19526 0.93905,0.28555 1.38487,0.28555 5.24378,0 8.27199,-12.57333 8.5598,-16.92207 0.0372,-0.57337 -0.18735,-1.14561 -0.61286,-1.70768 l 1.32618,-2.36907 c 1.70429,1.15011 2.93792,2.05982 3.61173,2.62753 0.59706,0.50451 1.02709,1.00565 1.33746,1.47969 -5.45258,4.78667 -9.92436,16.37806 -11.26295,20.10718 l -2.72572,0.51353 m -86.715375,-15.8679 c -0.0643,-0.87923 -0.69186,-1.65012 -1.59367,-1.85892 l -0.193,-0.044 c -5.71669,-1.43454 -14.208765,-4.89052 -15.19071,-8.08238 -0.253949,-0.82505 -0.0011,-3.03385 1.007894,-6.88598 5.314889,3.64784 17.532691,4.61737 17.532691,4.61737 0,0 -1.302475,5.16138 -1.563205,12.25391 m 68.016775,-10.80696 c 2.98531,-2.25282 5.26184,-5.17381 6.54513,-8.59366 0.12076,-0.32168 0.2325,-0.64447 0.33408,-0.9684 0.25508,-0.0237 0.51241,-0.0486 0.76636,-0.0733 2.70993,1.3544 5.26975,2.71218 7.64107,4.02595 l -1.88939,3.37019 c -2.08351,-0.66365 -3.5553,-1.05078 -3.5553,-1.05078 0,0 -3.71668,1.7878 -9.84195,3.29006 m -36.56651,-1.44019 c -15.81937,-6.74151 -18.89612,-22.32387 -18.89612,-22.32387 l -19.958185,-6.8239 c 0.29458,-0.57224 0.77426,-1.01919 1.37245,-1.27314 0.34651,-0.1456 0.71107,-0.21896 1.07563,-0.21896 0.35892,0 0.71782,0.07 1.05981,0.21106 4.723465,1.9492 11.831805,3.26974 20.118465,4.69638 1.04627,0.88712 2.13318,1.74943 3.25958,2.58577 -1.01693,8.39727 3.67381,17.28551 11.96837,23.14666"
             style="fill:#be1431;fill-opacity:1;fill-rule:nonzero;stroke:none;stroke-width:0.0112867"
             id="path73" />
          <path
             d="m 151.51624,205.49402 c -2.6264,0 -5.39502,-0.50226 -8.00787,-1.48306 -4.34199,-1.62867 -7.91646,-4.4492 -10.0282,-7.52594 5.60608,2.46387 11.7099,4.3747 18.16249,5.59479 2.77764,0.52595 5.54062,0.90857 8.27424,1.15576 -1.11286,0.77087 -2.49434,1.36906 -4.10044,1.7641 -1.35101,0.33069 -2.80247,0.49435 -4.30022,0.49435"
             style="fill:#c39787;fill-opacity:1;fill-rule:nonzero;stroke:none;stroke-width:0.0112867"
             id="path75" />
          <path
             d="m 151.42934,213.75247 c -3.62414,0 -7.26522,-0.6772 -10.82165,-2.01129 -10.39613,-3.90066 -17.24262,-12.46159 -17.45368,-20.76292 1.44131,0.92099 2.93341,1.80248 4.47516,2.63995 1.41535,5.76296 6.82165,11.40403 14.42886,14.25842 3.10271,1.16367 6.32278,1.75508 9.42322,1.75508 1.8307,0 3.62077,-0.20654 5.31828,-0.62303 3.77087,-0.92549 6.77087,-2.86228 8.55415,-5.45821 0.68849,0.0169 1.37472,0.0248 2.05869,0.0248 0.89165,0 1.77878,-0.0135 2.66027,-0.0429 -2.76636,6.23475 -9.97853,10.22007 -18.6433,10.22007"
             style="fill:#c3bac7;fill-opacity:1;fill-rule:nonzero;stroke:none;stroke-width:0.0112867"
             id="path77" />
          <path
             d="m 151.1009,214.84276 c -4.10271,0 -8.51352,-0.3781 -13.10607,-1.33409 -2.51692,-0.52483 -4.7957,-1.25281 -6.85777,-2.13205 -8.29456,-5.86115 -12.9853,-14.74939 -11.96836,-23.14666 1.2799,0.95146 2.60721,1.86681 3.98531,2.7483 0.21106,8.30133 7.05755,16.86226 17.45368,20.76292 3.55643,1.33409 7.19751,2.01129 10.82165,2.01129 8.66477,0 15.87694,-3.98532 18.6433,-10.22007 1.5203,-0.0508 3.02482,-0.14334 4.51014,-0.27765 -0.10154,0.32393 -0.21331,0.64672 -0.33408,0.9684 -1.28329,3.41986 -3.55982,6.34084 -6.54513,8.59366 -4.43679,1.08803 -10.13655,2.02595 -16.60267,2.02595 m 0.38035,-5.21105 c -3.10044,0 -6.32051,-0.59141 -9.42322,-1.75508 -7.60721,-2.85439 -13.01351,-8.49546 -14.42886,-14.25842 1.88035,1.02256 3.83407,1.98081 5.851,2.86681 2.11174,3.07674 5.68621,5.89727 10.0282,7.52594 2.61285,0.9808 5.38147,1.48306 8.00787,1.48306 1.49775,0 2.94921,-0.16366 4.30022,-0.49435 1.6061,-0.39504 2.98758,-0.99323 4.10044,-1.7641 1.82731,0.16478 3.63994,0.26974 5.43678,0.3149 -1.78328,2.59593 -4.78328,4.53272 -8.55415,5.45821 -1.69751,0.41649 -3.48758,0.62303 -5.31828,0.62303"
             style="fill:#371a45;fill-opacity:1;fill-rule:nonzero;stroke:none;stroke-width:0.0112867"
             id="path79" />
          <path
             d="m 203.11544,222.2073 h 0.006 -0.006 m 0,0 h 0.006 -0.006 M 94.371915,261.19366 175.29271,271.2591 c -0.23024,-5.10382 0.087,-16.48867 6.53498,-24.13651 0.55643,-0.6614 1.46613,-0.90518 2.2799,-0.6106 l 6.26748,2.26748 10.75167,-27.15456 c 0.0711,-0.48645 0.16365,-2.34423 -2.07336,-4.23363 -3.86455,-3.25846 -26.15908,-17.73584 -49.85203,-24.75727 -10.35776,-3.0711 -21.17376,-4.91872 -30.7155,-6.54964 -9.38485,-1.60271 -17.4898,-2.98758 -22.695195,-5.13656 -0.69075,-0.28443 -1.44921,-0.28216 -2.13544,0.008 -0.68284,0.29007 -1.20993,0.82957 -1.48532,1.52143 -7.923238,19.94466 -10.047385,29.25163 -9.460477,31.16133 0.981944,3.19187 9.474017,6.64784 15.190707,8.08238 l 0.193,0.044 c 1.10045,0.25509 1.79233,1.34763 1.55192,2.45147 -1.86568,8.54851 -4.2562,21.76857 -5.27313,36.97733 m 83.170235,14.48982 c -0.0846,0 -0.1693,-0.006 -0.25395,-0.0158 L 91.935125,265.05155 c -1.078997,-0.13431 -1.869069,-1.08353 -1.805854,-2.16931 0.886002,-15.17151 3.164764,-28.53943 5.068834,-37.61503 -4.556421,-1.30812 -14.708776,-4.80699 -16.434499,-10.41419 -1.128671,-3.66817 2.09142,-15.07446 9.56995,-33.9006 0.685101,-1.72573 2.003381,-3.07449 3.712179,-3.79796 1.71106,-0.7246 3.60045,-0.73137 5.32053,-0.0225 4.779905,1.97291 12.673785,3.32166 21.814845,4.88374 9.65573,1.6501 20.60041,3.5203 31.19293,6.66025 24.31484,7.20653 47.3351,22.18279 51.34186,25.56089 4.55417,3.84649 3.44582,8.30697 3.39616,8.49546 -0.0203,0.0801 -0.0463,0.15801 -0.0768,0.23476 l -11.5598,29.1952 c -0.41084,1.03724 -1.57223,1.56207 -2.6219,1.18058 l -6.73925,-2.43792 c -6.15687,8.63091 -4.54062,22.31372 -4.52256,22.45705 0.0778,0.63206 -0.13883,1.26524 -0.58916,1.71558 -0.3894,0.38939 -0.91536,0.6061 -1.4605,0.6061"
             style="fill:#371a45;fill-opacity:1;fill-rule:nonzero;stroke:none;stroke-width:0.0112867"
             id="path81" />
          <path
             d="m 101.68566,209.66445 c -0.45259,2.40179 -0.82053,4.8352 -1.15801,7.26069 -0.33295,2.42889 -0.626405,4.85891 -0.882605,7.29118 -0.12076,1.13996 -1.14221,1.96727 -2.28329,1.84763 -1.14108,-0.12077 -1.96727,-1.14334 -1.84763,-2.28329 0.0158,-0.15011 0.0519,-0.307 0.097,-0.44356 0.78781,-2.35779 1.61173,-4.70089 2.47065,-7.02708 0.86568,-2.32617 1.75394,-4.63316 2.731355,-6.91985 0.0993,-0.23362 0.36908,-0.34198 0.60272,-0.24265 0.20202,0.0869 0.31037,0.30022 0.27087,0.5079 l -10e-4,0.009"
             style="fill:#371a45;fill-opacity:1;fill-rule:nonzero;stroke:none;stroke-width:0.0112867"
             id="path83" />
          <path
             d="m 216.2802,175.27852 c 0.096,-0.26072 0.19074,-0.52258 0.27991,-0.78555 l 8.82052,-24.80468 c 0,0 0.19074,-48.2606 -54.17256,-53.228991 -54.3633,-4.967261 -69.95693,20.767441 -69.95693,20.767441 v 36.5665 c -0.22349,20.62072 21.23131,40.67034 50.77527,46.25836 29.67148,5.61285 57.07322,-5.33633 64.25379,-24.77195 v -0.001"
             style="fill:#ffcda4;fill-opacity:1;fill-rule:nonzero;stroke:none;stroke-width:0.0112867"
             id="path85" />
          <path
             d="m 216.2802,175.27965 h 0.005 -0.005 m -112.96474,-57.4186 v 35.93219 c -0.21557,19.89047 20.89047,38.89495 49.09357,44.23014 28.37577,5.36794 54.99083,-4.70878 61.92647,-23.43786 l 0.008,-0.0226 c 0.0903,-0.24153 0.1772,-0.48533 0.26073,-0.73025 l 8.70539,-24.48189 c -0.0609,-1.98644 -0.65689,-12.63541 -6.53159,-23.59362 -8.62413,-16.09025 -24.02026,-25.25501 -45.75835,-27.241461 -27.35773,-2.5 -44.40848,3.034971 -53.89491,8.118491 -8.62864,4.62414 -12.72344,9.72119 -13.80922,11.22684 m 64.09691,85.71423 c -5.1343,0 -10.42435,-0.4842 -15.76971,-1.49548 -30.14214,-5.70089 -52.692865,-26.46946 -52.455855,-48.30914 v -36.54387 c 0,-0.37698 0.1038,-0.74718 0.2991,-1.06997 0.17156,-0.28218 4.314875,-6.97967 15.371285,-12.98982 10.00788,-5.440168 27.94012,-11.376944 56.53824,-8.762956 29.00107,2.650104 42.71209,17.539456 49.10711,29.563136 6.91195,12.99546 6.94355,25.21551 6.9413,25.72906 0,0.23363 -0.0406,0.46388 -0.11852,0.68396 l -8.82052,24.8047 c -0.0823,0.24378 -0.18059,0.51579 -0.27991,0.78779 l -0.009,0.0226 c -6.272,16.97851 -26.80242,27.58007 -50.80349,27.58007"
             style="fill:#371a45;fill-opacity:1;fill-rule:nonzero;stroke:none;stroke-width:0.0112867"
             id="path87" />
          <path
             d="m 121.04341,102.46718 c -14.65234,6.28442 -19.79227,14.75956 -19.79227,14.75956 v 33.9085 l 19.79227,-48.66806"
             style="fill:#494963;fill-opacity:1;fill-rule:nonzero;stroke:none;stroke-width:0.0112867"
             id="path89" />
          <path
             d="m 103.31546,117.86218 v 22.71777 l 13.80019,-33.93444 c -8.623,4.63316 -12.71442,9.71328 -13.80019,11.21667 m -2.0632,35.33739 c -0.13093,0 -0.26411,-0.0124 -0.39729,-0.0384 -0.968395,-0.18962 -1.668165,-1.03837 -1.668165,-2.02596 v -33.90848 c 0,-0.37811 0.1038,-0.74718 0.30022,-1.07111 0.22348,-0.36794 5.655745,-9.1151 20.742615,-15.58573 0.76975,-0.32957 1.66139,-0.16254 2.25959,0.42437 0.59707,0.58578 0.78103,1.47517 0.46613,2.25056 l -19.79227,48.66806 c -0.32054,0.78894 -1.08465,1.28668 -1.91083,1.28668"
             style="fill:#371a45;fill-opacity:1;fill-rule:nonzero;stroke:none;stroke-width:0.0112867"
             id="path91" />
          <path
             d="M 302.49444,120.02808 C 267.69655,111.32833 264.79701,81.25053 264.79701,81.25053 L 205.42582,191.6374 c 0.98307,22.80469 20.64217,36.5665 54.65338,38.53263 33.49426,1.93567 40.49763,56.61838 40.49763,56.61838 0,0 4.12867,-30.96381 31.5541,-45.70756 27.42432,-14.74489 33.61731,-32.43785 33.61731,-32.43785 2.35891,-58.38813 -28.45705,-79.91516 -63.2538,-88.61492"
             style="fill:#ffffff;fill-opacity:1;fill-rule:nonzero;stroke:none;stroke-width:0.0112867"
             id="path93" />
          <path
             d="M 302.49444,120.02808 C 267.69655,111.32833 264.79701,81.25053 264.79701,81.25053 l -36.98863,68.77072 c 9.06997,9.77988 22.79792,19.75842 43.57553,27.46156 44.23805,16.40063 51.25947,51.74931 51.84299,69.53144 2.65462,-2.15689 5.60947,-4.16252 8.90403,-5.9334 27.42432,-14.74489 33.61731,-32.43785 33.61731,-32.43785 2.35891,-58.38813 -28.45705,-79.91516 -63.2538,-88.61492"
             style="fill:#f91228;fill-opacity:1;fill-rule:nonzero;stroke:none;stroke-width:0.0112867"
             id="path95" />
          <path
             d="m 350.59026,225.55832 c 7.63656,-8.23475 9.84987,-14.55641 9.84987,-14.55641 2.35891,-58.38812 -28.45705,-79.91516 -63.2538,-88.61491 -15.17717,-3.79457 -24.28663,-11.65573 -29.73356,-19.31485 0.83634,-1.08239 1.64559,-2.06434 2.42211,-2.93905 5.1343,7.92098 14.72345,17.54849 32.11844,21.89724 43.92427,10.98192 63.53935,38.37011 61.70527,86.18489 -0.59594,1.45147 -3.90518,8.75845 -13.10833,17.34309"
             style="fill:#fda0a9;fill-opacity:1;fill-rule:nonzero;stroke:none;stroke-width:0.0112867"
             id="path97" />
          <path
             d="m 300.82289,277.07738 c -1.20993,-5.15687 -3.12527,-11.86454 -6.0361,-18.6828 -8.09706,-18.97288 -20.05864,-29.44576 -34.58909,-30.28549 -32.27757,-1.86569 -50.88588,-14.29229 -52.61387,-35.04731 l 22.66812,-40.51684 c 2.7641,2.73815 5.9097,5.47629 9.48531,8.15912 -6.51353,22.95819 -6.9255,45.00102 8.34986,52.82831 6.26071,3.2088 11.03045,4.51693 14.70651,4.51693 8.13317,0 10.90969,-6.40631 12.60945,-12.81149 1.69977,-6.40629 2.32506,-12.81148 6.15914,-12.81148 1.07787,0 2.40857,0.50565 4.08802,1.66027 10.23135,7.03046 11.72796,42.04956 23.89046,64.9039 -4.3905,6.52031 -7.0914,13.03158 -8.71781,18.08688"
             style="fill:#c3bac7;fill-opacity:1;fill-rule:nonzero;stroke:none;stroke-width:0.0112867"
             id="path99" />
          <path
             d="m 239.73726,160.70406 c -3.57561,-2.68283 -6.72121,-5.42097 -9.48531,-8.15912 l 32.41866,-57.943434 c 1.14672,2.63431 2.69525,5.537234 4.78216,8.470644 -9.08576,11.74828 -21.33178,35.12971 -27.71551,57.63191"
             style="fill:#be1431;fill-opacity:1;fill-rule:nonzero;stroke:none;stroke-width:0.0112867"
             id="path101" />
          <path
             d="m 267.45277,103.07215 c -2.08691,-2.93341 -3.63544,-5.836334 -4.78216,-8.470644 l 2.34536,-4.192983 c 0.88939,2.415338 2.11626,5.15687 3.80247,8.016904 0.32957,0.558695 0.68059,1.128671 1.05644,1.707673 -0.77652,0.87471 -1.58577,1.85666 -2.42211,2.93905"
             style="fill:#c1788b;fill-opacity:1;fill-rule:nonzero;stroke:none;stroke-width:0.0112867"
             id="path103" />
          <path
             d="m 365.74824,208.643 h 0.005 -0.005 M 207.51612,192.10806 c 1.23136,21.32838 19.91191,34.10713 52.68158,36.00103 14.53045,0.83973 26.49203,11.31261 34.58909,30.28549 2.91083,6.81826 4.82617,13.52593 6.0361,18.6828 3.42776,-10.64897 11.61623,-27.75389 30.3295,-37.81481 24.49656,-13.17041 31.641,-28.84531 32.5462,-31.04734 1.83408,-47.81478 -17.781,-75.20297 -61.70527,-86.18489 -18.66813,-4.66703 -28.34419,-15.41193 -33.17488,-23.604913 -2.49659,-4.234752 -3.98644,-8.209913 -4.86454,-11.249401 L 207.51612,192.10806 m 93.06185,96.74355 h -0.007 c -1.03612,-0.004 -1.9097,-0.77313 -2.04175,-1.80022 -0.0678,-0.52934 -7.17944,-53.00664 -38.56988,-54.82041 -17.33406,-1.00226 -31.05523,-4.9808 -40.78095,-11.82503 -9.97627,-7.02029 -15.2968,-16.66926 -15.81486,-28.67939 -0.0158,-0.37133 0.0678,-0.73927 0.24379,-1.06659 L 262.97986,80.271975 c 0.43003,-0.800225 1.33183,-1.225731 2.22461,-1.045145 0.89164,0.179458 1.55981,0.919865 1.64785,1.825051 0.007,0.06884 0.77651,7.303601 5.61736,15.436756 6.45145,10.839703 16.72231,18.085733 30.52476,21.537203 45.61953,11.40403 66.82152,41.07326 64.81587,90.69955 -0.008,0.20429 -0.0463,0.40632 -0.11399,0.59932 -0.26411,0.75283 -6.77764,18.62186 -34.58908,33.57441 -26.13313,14.04964 -30.4435,43.86446 -30.48413,44.16469 -0.13882,1.0237 -1.01241,1.7878 -2.04514,1.7878"
             style="fill:#371a45;fill-opacity:1;fill-rule:nonzero;stroke:none;stroke-width:0.0112867"
             id="path105" />
          <path
             d="m 127.65401,117.35992 c 0.26184,-0.28103 0.4334,-0.45597 0.65687,-0.6614 0.21107,-0.19751 0.4289,-0.38148 0.65011,-0.55981 0.43793,-0.36456 0.90745,-0.68171 1.38375,-0.9921 0.96387,-0.60158 1.99887,-1.11061 3.10044,-1.48419 2.18961,-0.75057 4.68171,-0.96276 7.00563,-0.41197 2.33634,0.53047 4.36906,1.81828 5.92323,3.36004 1.57789,1.54401 2.7562,3.3386 3.68735,5.19525 0.19075,0.38036 0.0361,0.84424 -0.34424,1.03498 -0.32054,0.1614 -0.70089,0.0778 -0.92663,-0.18172 l -0.0169,-0.0192 c -0.32506,-0.37246 -0.65463,-0.73589 -0.96727,-1.10835 l -1.00903,-1.04063 c -0.70767,-0.6456 -1.41196,-1.27653 -2.17606,-1.78668 -1.50451,-1.05191 -3.15237,-1.7325 -4.79908,-1.87359 -1.64785,-0.16365 -3.29006,0.193 -4.85326,0.87473 -0.78217,0.3386 -1.55193,0.7404 -2.30249,1.193 -0.37472,0.22572 -0.74717,0.46388 -1.1106,0.70766 l -1.0158,0.70655 -0.20429,0.14108 c -0.93454,0.64899 -2.21783,0.41761 -2.86569,-0.51692 -0.5632,-0.81038 -0.46275,-1.88374 0.18398,-2.57675"
             style="fill:#371a45;fill-opacity:1;fill-rule:nonzero;stroke:none;stroke-width:0.0112867"
             id="path107" />
          <path
             d="m 186.25318,130.52468 0.307,-0.38713 c 0.0925,-0.11056 0.18397,-0.22123 0.27991,-0.32055 0.19075,-0.20655 0.38149,-0.40519 0.58465,-0.59142 0.40294,-0.37246 0.82167,-0.72686 1.27765,-1.03837 0.8939,-0.64221 1.90293,-1.15801 2.97967,-1.51693 1.07562,-0.36568 2.23138,-0.55079 3.37922,-0.5395 1.14899,0.009 2.27766,0.23589 3.32167,0.59255 1.05192,0.34538 1.99886,0.8781 2.85892,1.46613 0.8781,0.57224 1.61625,1.28104 2.33407,1.97517 1.38149,1.44583 2.48081,3.0553 3.3939,4.73023 0.15124,0.27653 0.0486,0.62303 -0.22799,0.77427 -0.22235,0.12077 -0.48984,0.079 -0.66478,-0.0858 l -0.006,-0.006 c -1.34197,-1.27201 -2.72233,-2.45711 -4.17492,-3.41534 -1.45485,-0.9368 -2.98081,-1.67156 -4.47968,-1.90971 -1.49886,-0.26524 -2.91421,-0.0463 -4.24491,0.5 -0.66591,0.27879 -1.31603,0.6343 -1.93792,1.06321 -0.31151,0.21331 -0.61738,0.44243 -0.90971,0.68171 -0.14671,0.12076 -0.29458,0.2404 -0.43114,0.36343 l -0.20429,0.17946 c -0.0576,0.0496 -0.14334,0.13431 -0.15463,0.13431 l -2.02934,-0.0214 c -0.89503,-0.0107 -1.61286,-0.74266 -1.60271,-1.6377 0.004,-0.37471 0.13431,-0.71895 0.35102,-0.99096"
             style="fill:#371a45;fill-opacity:1;fill-rule:nonzero;stroke:none;stroke-width:0.0112867"
             id="path109" />
          <path
             d="m 224.79034,72.45258 h 9.14219 c 0,0 -21.23246,-20.396114 -62.51678,-24.524772 -41.28545,-4.128659 -51.01681,16.808086 -51.01681,16.808086 0,0 -34.993136,14.646692 -18.97061,37.549566 46.49651,-13.916434 91.74584,-7.369053 135.95453,16.2652 l 7.8036,-12.8002 c 0,0 -4.1772,-25.286613 -20.39612,-33.29788"
             style="fill:#494963;fill-opacity:1;fill-rule:nonzero;stroke:none;stroke-width:0.0112867"
             id="path111" />
          <path
             d="m 229.04428,80.411924 c -0.64899,-0.5948 -1.32619,-1.161391 -2.03047,-1.694122 -1.16027,-0.876973 -1.70316,-2.242658 -1.58239,-3.565454 0.50225,0.300225 0.98984,0.619638 1.46614,0.955979 0.64108,1.196386 1.38148,2.650107 2.14672,4.303597"
             style="fill:#b6b6c1;fill-opacity:1;fill-rule:nonzero;stroke:none;stroke-width:0.0112867"
             id="path113" />
          <path
             d="M 224.53639,70.404052 C 215.01045,64.045151 196.60982,54.413119 169.646,51.716738 c -3.70653,-0.370202 -7.15461,-0.539503 -10.36905,-0.539503 -8.02256,0 -14.55866,1.051917 -19.85435,2.637692 1.99548,-1.023699 4.15236,-1.978551 6.46387,-2.841979 4.2765,-0.924378 9.33067,-1.513541 15.26181,-1.513541 3.10721,0 6.4571,0.161399 10.06205,0.521443 29.52025,2.952589 48.73239,14.484164 56.86104,20.407401 h -3.28103 c -0.0858,0 -0.17043,0.0057 -0.25395,0.01579"
             style="fill:#b6b6c1;fill-opacity:1;fill-rule:nonzero;stroke:none;stroke-width:0.0112867"
             id="path115" />
          <path
             d="M 236.46864,111.80802 C 224.46529,90.699714 197.42471,82.512373 196.1798,82.145562 c -0.19301,-0.05759 -0.38939,-0.0846 -0.58352,-0.0846 -0.52822,0 -1.04402,0.203153 -1.4334,0.579005 l -2.00677,-5.936782 c 32.14213,8.650089 42.83285,25.764045 42.83285,25.764045 -0.32506,-8.203135 -3.29344,-16.330661 -5.94468,-22.055255 6.84874,6.269746 10.68281,15.682814 12.63653,22.099275 l -5.21217,9.29681 M 99.325635,89.516869 c 0.0631,-1.084641 0.2483,-2.160264 0.55643,-3.22572 1.536105,-5.313764 5.835195,-9.751672 10.172655,-13.056404 4.63204,-3.058683 8.5756,-4.708792 8.5756,-4.708792 0,0 0.15688,-0.3386 0.51468,-0.918734 1.23927,-0.620766 2.01466,-0.951465 2.05078,-0.967266 0.46726,-0.19526 0.85215,-0.566591 1.0711,-1.023699 0.018,-0.0395 1.61174,-3.290061 6.06545,-6.838585 2.87809,-1.829567 6.52256,-3.5948 11.09027,-4.962742 -7.09818,3.643332 -12.14557,8.150093 -14.7968,12.469496 -2.71671,4.426626 0,8.0598 0,8.0598 1.37584,-4.128658 7.70087,-6.291181 7.70087,-6.291181 -2.12866,4.915338 2.32505,10.41984 2.32505,10.41984 3.1456,-12.385975 16.71103,-12.975138 16.71103,-12.975138 0.19639,9.829547 11.95256,15.752786 11.95256,15.752786 -1.41647,-3.318279 1.80926,-7.987569 1.80926,-7.987569 5.99547,7.372448 12.58123,8.4537 12.58123,8.4537 -1.76862,-4.030459 0.59029,-10.02593 0.59029,-10.02593 l 15.70425,14.153471 0.44696,1.312628 c -5.47967,-3.392768 -11.38147,-8.827289 -11.45709,-8.896138 -0.38713,-0.360043 -0.89052,-0.549659 -1.40181,-0.549659 -0.24265,0 -0.4887,0.04289 -0.72459,0.132053 -0.73025,0.274266 -1.2438,0.936792 -1.32731,1.713312 -0.21107,1.969528 -0.0118,3.879231 0.29119,5.432265 -6.70991,-2.207659 -12.7099,-7.566569 -12.77875,-7.628646 -0.38488,-0.348757 -0.88036,-0.533859 -1.38374,-0.533859 -0.21784,0 -0.43567,0.03499 -0.64785,0.104971 -0.70542,0.232505 -1.23138,0.826184 -1.37698,1.555301 -0.30022,1.504508 -0.2991,2.885992 -0.16591,4.05303 -9.69186,-2.96049 -12.75166,-10.480779 -12.8871,-10.823894 -0.30813,-0.804739 -1.08014,-1.32731 -1.92551,-1.32731 -0.07,0 -0.13995,0.0034 -0.21105,0.01019 -9.02256,0.916476 -12.73926,6.79118 -13.87807,11.521415 -2.9052,-2.643333 -2.4526,-6.573346 -2.42777,-6.76409 0.10048,-0.721217 -0.18736,-1.442435 -0.75507,-1.897287 -0.37247,-0.296839 -0.82844,-0.451467 -1.29007,-0.451467 -0.24492,0 -0.49097,0.04289 -0.72686,0.132055 -3.02144,1.137694 -5.0237,3.713309 -6.29796,6.133168 0.0203,-0.527087 0.15463,-0.838598 0.2122,-0.950336 0.61851,-0.667042 0.65801,-1.592547 0.18848,-2.380356 -0.36794,-0.616252 -1.05982,-0.936793 -1.76862,-0.936793 -0.21332,0 -0.42889,0.02821 -0.63656,0.08804 -0.68172,0.193001 -14.99207,4.357778 -21.744865,14.62411"
             style="fill:#443b5a;fill-opacity:1;fill-rule:nonzero;stroke:none;stroke-width:0.0112867"
             id="path117" />
          <path
             d="m 241.68081,102.5112 c -1.95372,-6.416462 -5.78779,-15.82953 -12.63653,-22.099276 -0.76524,-1.65349 -1.50564,-3.107211 -2.14672,-4.303597 9.04512,6.391629 13.45821,18.925457 15.24262,25.582333 l -0.45937,0.82054"
             style="fill:#90879c;fill-opacity:1;fill-rule:nonzero;stroke:none;stroke-width:0.0112867"
             id="path119" />
          <path
             d="m 110.05472,73.234745 c 3.46839,-2.643334 6.96387,-4.562065 9.09028,-5.627526 -0.3578,0.580134 -0.51468,0.918734 -0.51468,0.918734 0,0 -3.94356,1.650109 -8.5756,4.708792 m 18.27761,-14.457076 c 1.00452,-0.801353 2.15462,-1.616249 3.465,-2.414215 3.25282,-1.97968 7.84197,-4.041751 14.08914,-5.390506 -2.31151,0.863428 -4.46839,1.81828 -6.46387,2.841979 -4.56771,1.367942 -8.21218,3.133175 -11.09027,4.962742"
             style="fill:#90879c;fill-opacity:1;fill-rule:nonzero;stroke:none;stroke-width:0.0112867"
             id="path121" />
          <path
             d="m 195.59628,84.125233 2.43227,7.151235 C 191.46762,88.917555 181.5884,79.775356 181.5884,79.775356 c -0.44243,4.128667 1.1806,8.0361 1.1806,8.0361 -8.6264,-1.25394 -17.1038,-8.920968 -17.1038,-8.920968 -0.73703,3.686226 0.66253,6.439038 0.66253,6.439038 C 152.69006,82.994311 148.6596,72.45258 148.6596,72.45258 c -12.58236,1.277649 -12.43451,12.876946 -12.43451,12.876946 -7.17606,-2.899539 -6.12527,-10.458216 -6.12527,-10.458216 -5.33068,2.006767 -6.96161,9.909686 -6.96161,9.909686 -3.63769,-5.206541 -1.50452,-7.902919 -1.50452,-7.902919 0,0 -17.84645,5.059806 -22.564255,17.642169 0,0 0,5.995474 2.358895,7.765214 0,0 -11.992064,13.46724 -2.358895,17.49658 0,0 65.268455,-50.032614 125.426315,19.26631 l 12.88711,-20.49769 C 227.85806,93.629729 195.59628,84.125233 195.59628,84.125233"
             style="fill:#ffffff;fill-opacity:1;fill-rule:nonzero;stroke:none;stroke-width:0.0112867"
             id="path123" />
          <path
             d="m 230.74744,129.10482 6.63542,-10.55416 C 227.85806,93.629729 195.59628,84.125233 195.59628,84.125233 l 2.43227,7.151235 C 191.46762,88.917555 181.5884,79.775356 181.5884,79.775356 c -0.44243,4.128667 1.1806,8.0361 1.1806,8.0361 -8.6264,-1.25394 -17.1038,-8.920968 -17.1038,-8.920968 -0.73703,3.686226 0.66253,6.439038 0.66253,6.439038 C 152.69006,82.994311 148.6596,72.45258 148.6596,72.45258 c -12.58236,1.277649 -12.43451,12.876946 -12.43451,12.876946 -7.17606,-2.899539 -6.12527,-10.458216 -6.12527,-10.458216 -5.33068,2.006767 -6.96161,9.909686 -6.96161,9.909686 -3.63769,-5.206541 -1.50452,-7.902919 -1.50452,-7.902919 0,0 -17.84645,5.059806 -22.564255,17.642169 0,0 0,2.279903 0.55416,4.443555 13.905155,-6.961602 76.814715,-33.187277 131.123845,30.141019"
             style="fill:#f91228;fill-opacity:1;fill-rule:nonzero;stroke:none;stroke-width:0.0112867"
             id="path125" />
          <path
             d="m 101.16535,95.459296 c -0.0124,-0.191872 -0.0215,-0.381492 -0.026,-0.567712 3.26411,-8.119624 12.79455,-12.870177 17.83969,-14.883713 0.0745,0.751681 0.26072,1.594802 0.6106,2.523686 -4.11962,1.497746 -13.4661,5.551906 -18.42433,12.927739"
             style="fill:#be1431;fill-opacity:1;fill-rule:nonzero;stroke:none;stroke-width:0.0112867"
             id="path127" />
          <path
             d="m 233.86369,116.45586 c -9.08577,-14.67039 -25.90288,-22.676016 -33.86562,-25.796776 -0.005,-0.01576 -0.009,-0.03164 -0.0147,-0.0474 l -1.05982,-3.115109 c 8.18508,3.191868 27.02815,12.068812 35.141,28.601515 l -0.2009,0.35778"
             style="fill:#be1431;fill-opacity:1;fill-rule:nonzero;stroke:none;stroke-width:0.0112867"
             id="path129" />
          <path
             d="m 198.02855,96.248231 c -4.19976,-1.510152 -9.75618,-5.796826 -13.21216,-8.687336 -0.0215,-0.181717 -0.0678,-0.362297 -0.13995,-0.536111 -0.007,-0.0192 -0.40632,-1.010157 -0.72234,-2.46501 3.48644,2.883744 8.74941,6.869061 12.99545,8.516911 l 1.079,3.171546"
             style="fill:#be1431;fill-opacity:1;fill-rule:nonzero;stroke:none;stroke-width:0.0112867"
             id="path131" />
          <path
             d="m 165.93947,89.283241 c -2.03161,-0.37359 -4.04176,-0.677199 -6.02708,-0.915353 -0.006,-0.0024 -0.0118,-0.0047 -0.0169,-0.0071 1.98983,0.238142 4.00563,0.540625 6.04174,0.914215 0.001,0.0024 0.001,0.0047 0.002,0.0083 m -32.48299,-0.613995 c -0.001,-0.0011 -0.002,-0.0024 -0.004,-0.0036 0.97629,-0.135435 1.97291,-0.259589 2.9763,-0.3702 0,0.0011 0,0.0024 0,0.0036 -1.00452,0.111737 -1.99549,0.234766 -2.97291,0.370201"
             style="fill:#c3bac7;fill-opacity:1;fill-rule:nonzero;stroke:none;stroke-width:0.0112867"
             id="path133" />
          <path
             d="m 123.13821,89.75276 c -1.15914,-1.660268 -1.7325,-3.064324 -1.97516,-4.207664 0.0915,0.137698 0.18623,0.277659 0.28442,0.417608 0.39051,0.559822 1.02596,0.882614 1.69074,0.882614 0.13883,0 0.27878,-0.01469 0.4176,-0.04289 0.21671,-0.04515 0.421,-0.123029 0.60723,-0.230251 -0.73476,1.775394 -1.02483,3.180575 -1.02483,3.180575 m 42.79899,-0.477423 c -2.0361,-0.373589 -4.0519,-0.676072 -6.04174,-0.914215 -8.51465,-3.836338 -11.23586,-10.93677 -11.23586,-10.93677 -5.28104,0.536116 -8.3194,2.890517 -10.06657,5.441302 0.6456,-2.779911 2.65236,-6.997732 8.86003,-8.156871 1.72911,3.202024 6.80923,10.476267 18.0688,12.573327 0.0915,0.807005 0.25734,1.485329 0.41534,1.993227 m -32.48412,-0.609468 c -1.91647,-1.598191 -2.77426,-3.629786 -3.14446,-5.339713 1.14786,1.566589 2.80361,2.971771 5.14333,3.917599 0.24718,0.0993 0.50677,0.147853 0.76524,0.147853 0.13882,0 0.27652,-0.01351 0.41083,-0.04064 -0.0813,0.335211 -0.14673,0.651237 -0.19864,0.944691 -1.00339,0.110671 -2,0.234766 -2.9763,0.370201 m -7.93451,-4.74829 c 0.43905,-1.372454 1.30812,-3.577875 2.74153,-5.230238 0.1264,0.590291 0.30022,1.197513 0.52821,1.806994 -1.37358,0.855526 -2.44582,2.111729 -3.26974,3.423244"
             style="fill:#be1431;fill-opacity:1;fill-rule:nonzero;stroke:none;stroke-width:0.0112867"
             id="path135" />
          <path
             d="m 182.769,92.783231 c -5.68848,-0.826188 -11.31037,-4.440167 -14.48079,-6.806983 0.17043,-0.513539 0.13319,-1.08464 -0.11964,-1.582384 -0.006,-0.01066 -0.22008,-0.455988 -0.40292,-1.20767 3.32053,2.392766 8.60945,5.610595 14.1275,6.575595 0.36908,1.799092 0.87585,3.021442 0.87585,3.021442"
             style="fill:#be1431;fill-opacity:1;fill-rule:nonzero;stroke:none;stroke-width:0.0112867"
             id="path137" />
          <path
             d="m 152.90338,100.25274 c 9.32051,0 18.45481,1.53612 27.29112,4.59931 15.74941,5.46048 30.54734,15.8047 44.02135,30.76403 L 235.07699,118.3396 C 227.64135,100.36222 207.4721,90.829509 198.92358,87.496567 l 1.05982,3.115108 c 0.25508,0.750568 0.0576,1.581259 -0.5079,2.136566 -0.56433,0.556432 -1.39841,0.739275 -2.14559,0.470657 -4.30812,-1.549657 -9.78441,-5.688479 -13.37581,-8.659124 0.31602,1.454853 0.71556,2.445814 0.72234,2.46501 0.28103,0.685101 0.17381,1.470647 -0.28216,2.055292 -0.45599,0.58352 -1.19075,0.880363 -1.92212,0.774266 -5.72572,-0.831828 -11.27086,-4.191858 -14.70651,-6.668148 0.18284,0.751682 0.39728,1.197503 0.40292,1.20767 0.35328,0.695256 0.28443,1.530473 -0.17832,2.160263 -0.46276,0.627539 -1.24266,0.941302 -2.01015,0.810382 -11.58124,-1.983061 -16.77423,-9.410813 -18.52704,-12.655726 -8.92437,1.667038 -9.16703,9.655731 -9.16365,10.60381 0.002,0.687353 -0.33746,1.336338 -0.90744,1.72122 -0.56885,0.38487 -1.29233,0.467268 -1.93002,0.20993 -4.55868,-1.841986 -6.51917,-5.428877 -7.19185,-8.556414 -2.22348,2.564327 -3.08916,6.459354 -3.09932,6.510139 -0.16705,0.806992 -0.79797,1.43792 -1.60497,1.604968 -0.80699,0.167036 -1.63655,-0.163659 -2.10834,-0.839732 -1.6535,-2.365679 -2.31038,-4.36342 -2.46839,-5.954833 -5.04514,2.013536 -14.57558,6.764089 -17.83969,14.883713 0.0655,2.293446 0.67721,5.104947 1.52708,5.742636 0.46275,0.34651 0.75847,0.87134 0.81603,1.44583 0.0576,0.57449 -0.12866,1.14673 -0.51355,1.57787 -2.51353,2.83183 -6.226835,8.5361 -5.485305,11.78666 0.1219,0.53611 0.40633,1.26523 1.40068,1.91986 4.059805,-2.85779 19.116195,-12.60269 40.010055,-15.97401 4.70428,-0.75958 9.38034,-1.13769 14.009,-1.13769 m 71.59125,40.85995 c -0.5948,0 -1.16478,-0.25734 -1.55757,-0.71106 -24.44914,-28.16359 -52.50213,-39.91865 -83.38467,-34.93558 -23.05637,3.72007 -39.06875,15.83292 -39.2279,15.95481 -0.586895,0.45034 -1.369055,0.55079 -2.051895,0.26637 -3.2912,-1.37697 -4.43567,-3.65914 -4.8149,-5.32956 -1.15462,-5.079 3.10383,-11.29907 5.28893,-14.07333 -1.64108,-2.730242 -1.74153,-6.814889 -1.74153,-7.764094 0,-0.247172 0.0441,-0.49323 0.13092,-0.724607 5.027075,-13.404024 23.164725,-18.685052 23.934485,-18.902884 0.89842,-0.255079 1.92549,0.04627 2.40518,0.848756 0.46953,0.787809 0.43003,1.713314 -0.18848,2.380356 -0.0576,0.111737 -0.19188,0.423249 -0.2122,0.950336 1.27426,-2.419859 3.27652,-4.995474 6.29796,-6.133168 0.68171,-0.256208 1.44695,-0.13544 2.01693,0.319412 0.56771,0.454853 0.85552,1.17607 0.75507,1.897287 -0.0248,0.190744 -0.47743,4.120758 2.42777,6.764091 1.13881,-4.730236 4.85551,-10.60494 13.87807,-11.521416 0.9255,-0.0948 1.8036,0.445823 2.13656,1.317153 0.13544,0.343114 3.19524,7.863408 12.8871,10.823898 -0.13319,-1.167038 -0.13431,-2.548522 0.16591,-4.053035 0.1456,-0.729117 0.67156,-1.322796 1.37698,-1.555301 0.70428,-0.233634 1.4808,-0.06998 2.03159,0.428893 0.0689,0.06208 6.06884,5.420987 12.77875,7.628646 -0.30248,-1.553034 -0.50226,-3.462737 -0.29119,-5.432265 0.0835,-0.77652 0.59706,-1.439046 1.32731,-1.713312 0.73025,-0.274266 1.55417,-0.112863 2.1264,0.417606 0.0756,0.06884 5.97742,5.50337 11.45709,8.896138 l -0.80587,-2.366805 c -0.24718,-0.730246 -0.0688,-1.537251 0.46501,-2.093683 0.53386,-0.55642 1.33295,-0.768614 2.07336,-0.55078 1.35665,0.39955 33.35432,10.086877 43.13082,35.668088 0.23138,0.60721 0.16479,1.28668 -0.18059,1.83633 l -12.8871,20.4977 c -0.34763,0.55304 -0.93792,0.90857 -1.58916,0.95937 -0.0531,0.004 -0.10605,0.006 -0.15914,0.006"
             style="fill:#371a45;fill-opacity:1;fill-rule:nonzero;stroke:none;stroke-width:0.0112867"
             id="path139" />
          <path
             d="m 237.3806,120.61499 c -0.36682,0 -0.73702,-0.097 -1.07336,-0.30136 -0.97291,-0.59367 -1.28103,-1.86342 -0.68736,-2.83746 l 7.39051,-12.12186 c -0.83183,-4.11173 -5.55869,-24.346449 -19.13427,-31.050718 -0.86005,-0.425507 -1.31377,-1.386001 -1.09594,-2.320536 0.21784,-0.934535 1.05079,-1.594805 2.01016,-1.594805 h 3.28103 c -8.12865,-5.923237 -27.34079,-17.454812 -56.86104,-20.407401 -20.53607,-2.051913 -32.76741,2.337466 -39.413,6.382604 -7.1185,4.332947 -9.50787,9.204267 -9.53045,9.2528 -0.21895,0.457108 -0.60384,0.828439 -1.0711,1.023699 -0.17607,0.07449 -17.83404,7.61172 -21.313715,19.651196 -1.38262,4.781029 -0.29346,9.76521 3.237005,14.811481 0.6535,0.9334 0.42664,2.2212 -0.5079,2.8747 -0.93453,0.6535 -2.22121,0.42551 -2.874705,-0.50902 -4.28329,-6.123009 -5.5677,-12.292299 -3.81715,-18.335171 3.65462,-12.613968 19.436755,-20.388215 22.994305,-21.998822 2.22008,-3.879223 14.33631,-21.099272 52.70641,-17.26068 41.51796,4.151231 62.85426,24.236962 63.74252,25.090234 0.60723,0.583519 0.7991,1.477422 0.4842,2.259588 -0.3149,0.781036 -1.07224,1.29345 -1.91422,1.29345 h -2.37246 c 12.15573,10.497716 15.50786,29.958171 15.66362,30.897221 0.0801,0.48757 -0.0169,0.98871 -0.27426,1.41083 l -7.80472,12.8002 c -0.38827,0.63769 -1.06772,0.98983 -1.76411,0.98983"
             style="fill:#371a45;fill-opacity:1;fill-rule:nonzero;stroke:none;stroke-width:0.0112867"
             id="path141" />
          <path
             d="m 186.62001,226.30436 c 0.0531,0.0135 0.0349,0.0237 -0.0723,0.0688 -0.10273,0.0372 -0.32167,0.14898 -0.69751,0.21896 -0.41197,0.0745 -0.70316,0.044 -1.11964,0.0406 -0.40971,0.0107 -0.86117,-0.0925 -1.37021,-0.17269 -1.00111,-0.23137 -2.17154,-0.68849 -3.30246,-1.46839 -1.13431,-0.77765 -2.20542,-1.84763 -3.0711,-3.20315 l -0.15576,-0.26637 c -0.22347,-0.38262 -0.0948,-0.87358 0.28781,-1.09706 0.25508,-0.14899 0.55981,-0.14108 0.80022,-0.005 l 0.0271,0.0158 c 1.35102,0.76863 2.64334,1.56547 3.76411,2.31829 1.12415,0.75394 2.06997,1.44356 2.82279,1.98532 1.5,1.09029 2.29457,1.61737 2.08691,1.56433 -0.20881,-0.0531 -1.43567,-0.67608 -3.21444,-1.45147 -0.88714,-0.39165 -1.89504,-0.81377 -2.94357,-1.29683 -1.05191,-0.4842 -2.15236,-1.04854 -3.31715,-1.71107 l 1.11625,-1.0869 0.10605,0.17947 c 0.72347,1.13317 1.64221,2.12414 2.57675,2.84988 0.93566,0.73814 1.89616,1.23363 2.74266,1.57335 0.4334,0.13318 0.81941,0.30587 1.18058,0.37585 0.34536,0.0914 0.7088,0.18397 0.84086,0.24041 0.16478,0.0824 0.36568,0.20428 0.5474,0.2483 0.17945,0.0519 0.31037,0.0655 0.36456,0.079"
             style="fill:#371a45;fill-opacity:1;fill-rule:nonzero;stroke:none;stroke-width:0.0112867"
             id="path143" />
          <path
             d="m 220.65716,165.46591 c -0.18172,0.15124 -0.68961,-0.15915 -1.46613,-0.64448 -0.7833,-0.48645 -1.84424,-1.16139 -3.0553,-1.88486 -2.41196,-1.45485 -4.40744,-2.66704 -4.23362,-3.0824 0.16591,-0.41195 2.52707,0.16141 5.07448,1.69526 1.272,0.7596 2.32054,1.65012 2.96838,2.40745 0.64899,0.7641 0.87585,1.37697 0.71219,1.50903"
             style="fill:#371a45;fill-opacity:1;fill-rule:nonzero;stroke:none;stroke-width:0.0112867"
             id="path145" />
          <path
             d="m 218.0127,168.47606 c 0.11517,0.10604 0.5474,0.36907 1.03386,-0.13094 0.48758,-0.49999 0.15914,-0.93453 0.035,-1.04965 -1.82843,-1.64221 -3.45371,-2.5711 -4.70653,-3.18397 -1.2596,-0.60835 -2.17269,-0.8939 -2.80586,-1.04628 -0.63431,-0.1501 -0.99097,-0.16478 -1.1851,-0.15349 -0.19414,0.0147 -0.22799,0.0564 -0.22799,0.0564 0,0 0.004,0.0531 0.14559,0.17833 0.14109,0.12867 0.421,0.32731 0.95711,0.65124 0.535,0.32732 1.32957,0.77878 2.45711,1.48419 1.12189,0.71106 2.59593,1.66478 4.29682,3.19413"
             style="fill:#371a45;fill-opacity:1;fill-rule:nonzero;stroke:none;stroke-width:0.0112867"
             id="path147" />
          <path
             d="m 255.1379,103.83626 c -0.16254,0.18848 -1.1377,-0.48759 -2.82393,-1.20881 -0.85101,-0.3465 -1.88148,-0.69977 -3.05868,-0.95484 -1.16929,-0.25509 -2.51354,-0.41649 -3.86003,-0.39165 l -0.14899,0.006 0.16705,-1.588034 c 2.88712,0.874724 5.16138,2.294584 6.70089,3.413094 1.53723,1.13431 2.33746,2.02031 2.20314,2.19299 -0.13769,0.17607 -1.16026,-0.37246 -2.80586,-1.22798 -1.64334,-0.842 -3.91872,-2.035 -6.55077,-2.81942 l -0.0271,-0.009 c -0.42664,-0.12753 -0.67044,-0.57674 -0.54289,-1.00338 0.10048,-0.33747 0.40406,-0.559817 0.73701,-0.575612 l 0.21219,-0.0095 c 3.11964,-0.05415 5.79344,0.910822 7.49773,1.946942 1.70316,1.06546 2.43566,2.08803 2.30022,2.22912"
             style="fill:#371a45;fill-opacity:1;fill-rule:nonzero;stroke:none;stroke-width:0.0112867"
             id="path149" />
          <path
             d="m 156.9203,170.54151 c -5.69863,-0.5982 -10.71104,-2.58577 -14.24941,-5.32843 -1.12866,1.96839 -1.77652,4.24717 -1.77652,6.67832 0,7.43113 6.02369,13.45482 13.4537,13.45482 7.43113,0 13.45482,-6.02369 13.45482,-13.45482 0,-0.69752 -0.0531,-1.38262 -0.15576,-2.05079 -3.21895,0.82167 -6.88598,1.10383 -10.72683,0.7009"
             style="fill:#371a45;fill-opacity:1;fill-rule:nonzero;stroke:none;stroke-width:0.0112867"
             id="path151" />
          <path
             d="m 154.91465,185.34622 c 1.89616,0 3.71219,-0.36569 5.39051,-1.03161 -0.78668,-4.82278 -5.61849,-9.12412 -12.00787,-10.21329 -2.80473,-0.47855 -5.51014,-0.26862 -7.8476,0.48194 2.1343,6.27538 7.80358,10.76296 14.46496,10.76296"
             style="fill:#ff5582;fill-opacity:1;fill-rule:nonzero;stroke:none;stroke-width:0.0112867"
             id="path153" />
          <path
             d="m 143.53546,168.31352 c -0.38037,1.14898 -0.57676,2.35892 -0.57676,3.579 0,6.2799 5.10948,11.38936 11.38937,11.38936 6.12752,0 11.13992,-4.86341 11.38146,-10.93224 -2.886,0.47967 -5.96162,0.56658 -9.02481,0.24492 -4.88824,-0.51242 -9.4695,-2.01241 -13.16926,-4.28104 z m 10.81261,19.09702 c -8.55642,0 -15.51802,-6.9616 -15.51802,-15.51802 0,-2.70202 0.7088,-5.3668 2.04965,-7.7054 0.29684,-0.51805 0.80362,-0.88261 1.38939,-0.99887 0.58691,-0.11517 1.193,0.0271 1.66591,0.39278 3.39051,2.62753 8.07899,4.37019 13.20087,4.90744 3.45936,0.36343 6.91759,0.13883 10.00111,-0.64786 0.5632,-0.14333 1.16365,-0.0429 1.64898,0.27765 0.48645,0.32168 0.81377,0.83409 0.90179,1.40971 0.11852,0.77539 0.17947,1.5711 0.17947,2.36455 0,8.55642 -6.96161,15.51802 -15.51915,15.51802"
             style="fill:#371a45;fill-opacity:1;fill-rule:nonzero;stroke:none;stroke-width:0.0112867"
             id="path155" />
          <path
             d="m 167.53652,199.46018 c -4.91307,0 -9.99207,-0.46502 -15.12749,-1.4368 -28.2031,-5.33519 -49.30914,-24.33967 -49.09357,-44.23014 v -2.25394 l 1.85326,-4.55755 c 0.75621,20.1083 21.89725,39.36446 50.75496,44.82269 5.24152,0.99209 10.40856,1.465 15.40629,1.465 7.57448,-0.001 14.75955,-1.0869 21.21101,-3.10044 l -3.33859,5.9571 c -6.53272,2.17042 -13.89387,3.33408 -21.66587,3.33408"
             style="fill:#c39787;fill-opacity:1;fill-rule:nonzero;stroke:none;stroke-width:0.0112867"
             id="path157" />
          <path
             d="m 167.46316,201.51886 c -5.00789,0 -10.18733,-0.47403 -15.43675,-1.46726 -29.54396,-5.58802 -50.99876,-25.63764 -50.77527,-46.25836 v -0.59367 c 10e-4,0 10e-4,0 10e-4,0 0.82618,0 1.59029,-0.49774 1.91083,-1.28668 l 0.15237,-0.37359 v 2.25394 c -0.21557,19.89047 20.89047,38.89495 49.09357,44.23014 5.13542,0.97178 10.21442,1.4368 15.12749,1.4368 7.772,0 15.13315,-1.16366 21.66587,-3.33408 l -1.44357,2.57336 c -6.21217,1.83521 -13.07672,2.8194 -20.29566,2.8194"
             style="fill:#371a45;fill-opacity:1;fill-rule:nonzero;stroke:none;stroke-width:0.0112867"
             id="path159" />
          <path
             d="m 103.31546,140.57995 v -21.20423 c 0.54289,-0.34763 1.15463,-0.73138 1.83408,-1.14221 v 17.8363 l -1.83408,4.51014"
             style="fill:#443b5a;fill-opacity:1;fill-rule:nonzero;stroke:none;stroke-width:0.0112867"
             id="path161" />
          <path
             d="m 101.25226,153.19957 c 0,0 0,0 -0.001,0 v -32.44575 c 0.49773,-0.34763 1.19073,-0.81715 2.06432,-1.3781 v 21.20423 l 1.83408,-4.51014 v 9.47628 c -0.006,0.47855 0.001,0.95823 0.0192,1.43566 l -1.85326,4.55755 -0.15237,0.37359 c -0.32054,0.78894 -1.08465,1.28668 -1.91083,1.28668"
             style="fill:#371a45;fill-opacity:1;fill-rule:nonzero;stroke:none;stroke-width:0.0112867"
             id="path163" />
          <path
             d="m 103.49379,114.38476 c 0.47065,-0.51806 1.02031,-1.09029 1.65575,-1.70428 v 0.73476 c -0.58465,0.33408 -1.13656,0.65801 -1.65575,0.96952"
             style="fill:#c3bac7;fill-opacity:1;fill-rule:nonzero;stroke:none;stroke-width:0.0112867"
             id="path165" />
          <path
             d="m 101.25114,120.75382 v -3.52708 c 0,0 0.67944,-1.11738 2.24265,-2.84198 0.51919,-0.31151 1.0711,-0.63544 1.65575,-0.96952 v 4.81827 c -0.67945,0.41083 -1.29119,0.79458 -1.83408,1.14221 -0.87359,0.56095 -1.56659,1.03047 -2.06432,1.3781"
             style="fill:#371a45;fill-opacity:1;fill-rule:nonzero;stroke:none;stroke-width:0.0112867"
             id="path167" />
          <path
             d="m 187.11549,366.99815 h -41.73016 c -0.46952,-6.22571 1.15576,-15.51238 1.89729,-19.31485 h 21.92434 c 3.57786,3.25958 11.36113,10.26747 15.15006,13.02254 2.42212,1.76185 2.79683,4.54175 2.75847,6.29231 m -33.983,-16.44013 c 2.28103,8.99658 10.81036,11.43338 17.6591,11.43224 4.51241,0 8.29683,-1.05868 9.07673,-1.99548 1.87359,-2.2483 -8.03158,-9.49208 -11.59252,-9.49208 -0.1772,0 -0.3386,0.018 -0.48194,0.0553 -1.01016,0.26184 -2.97516,0.34988 -5.14784,0.34988 -4.34424,0 -9.51353,-0.34988 -9.51353,-0.34988"
             style="fill:#544b58;fill-opacity:1;fill-rule:nonzero;stroke:none;stroke-width:0.0112867"
             id="path169" />
          <path
             d="M 188.96199,369.06248 H 143.549 c -1.02257,-6.25055 0.75846,-16.84871 1.62866,-21.37918 h 2.10496 c -0.74153,3.80247 -2.36681,13.08914 -1.89729,19.31485 h 41.73016 c 0.0384,-1.75056 -0.33635,-4.53046 -2.75847,-6.29231 -3.78893,-2.75507 -11.5722,-9.76296 -15.15006,-13.02254 h 3.07335 c 3.92097,3.54288 10.1151,9.04399 13.29003,11.35325 4.86568,3.53837 3.39165,10.02593 3.39165,10.02593"
             style="fill:#371a45;fill-opacity:1;fill-rule:nonzero;stroke:none;stroke-width:0.0112867"
             id="path171" />
          <path
             d="m 172.28031,347.6833 h -27.10265 c 0.2596,-1.34763 0.43793,-2.15914 0.43793,-2.15914 l 23.13425,-1.05981 c 0,0 1.44244,1.33295 3.53047,3.21895"
             style="fill:#371a45;fill-opacity:1;fill-rule:nonzero;stroke:none;stroke-width:0.0112867"
             id="path173" />
          <path
             d="m 148.26681,273.37083 c 2.0271,3.02821 5.13318,4.65349 9.21443,5.01353 L 277.67395,63.556438 c 0,0 -5.79907,2.85101 -8.05979,2.949203 -2.26185,0.09819 -5.60383,0.392777 -5.60383,0.392777 L 148.26681,273.37083"
             style="fill:#0fd15d;fill-opacity:1;fill-rule:nonzero;stroke:none;stroke-width:0.0112867"
             id="path175" />
          <path
             d="m 151.6404,273.39341 c -0.25621,0 -0.51241,-0.0135 -0.76749,-0.0407 -0.0474,-0.0508 -0.0948,-0.10379 -0.14221,-0.15688 l 9.79342,-17.47061 c 0.48195,0.37132 0.99774,0.72009 1.54063,1.04853 l -9.26634,16.52818 c -0.38262,0.0609 -0.77088,0.0915 -1.15801,0.0915 m 22.85547,-38.79673 -1.772,-0.6332 92.5517,-165.098921 c 1.15914,-0.0948 3.02143,-0.23589 4.42775,-0.296838 0.27652,-0.01242 0.58465,-0.05192 0.91535,-0.115125 l -0.17495,0.313769 c -1.65122,0.116251 -3.12301,0.246049 -3.12301,0.246049 L 174.49587,234.59667"
             style="fill:#9fedbe;fill-opacity:1;fill-rule:nonzero;stroke:none;stroke-width:0.0112867"
             id="path177" />
          <path
             d="m 156.3616,276.15863 c -1.65574,-0.29119 -3.05529,-0.84987 -4.21894,-1.68509 l 0.65575,-1.17155 c 2.10496,-0.33183 4.08916,-1.56885 5.25845,-3.65914 l 6.47968,-11.58123 c 0.51918,0.23477 1.04852,0.45372 1.58012,0.65914 l -9.75506,17.43787"
             style="fill:#1b9a56;fill-opacity:1;fill-rule:nonzero;stroke:none;stroke-width:0.0112867"
             id="path179" />
          <path
             d="m 152.14266,274.47354 c -0.45937,-0.33069 -0.88262,-0.70316 -1.26975,-1.12077 0.25508,0.0271 0.51128,0.0406 0.76749,0.0406 0.38713,0 0.77539,-0.0304 1.15801,-0.0915 l -0.65575,1.17156"
             style="fill:#80ad99;fill-opacity:1;fill-rule:nonzero;stroke:none;stroke-width:0.0112867"
             id="path181" />
          <path
             d="m 177.30399,235.60117 -0.16817,-0.0598 93.3079,-166.775005 c 0.6727,-0.04741 1.37585,-0.09255 2.02032,-0.125281 L 180.26448,233.43413 c -0.097,-0.0147 -0.19526,-0.0215 -0.29458,-0.0215 -0.0891,0 -0.17832,0.006 -0.26861,0.018 -0.55531,0.0711 -1.05757,0.36681 -1.39165,0.81714 l -1.00565,1.35327"
             style="fill:#1b9a56;fill-opacity:1;fill-rule:nonzero;stroke:none;stroke-width:0.0112867"
             id="path183" />
          <path
             d="m 270.44372,68.766359 0.17495,-0.31377 c 0.69639,-0.132053 1.49435,-0.364559 2.31151,-0.645596 l -0.46614,0.834084 c -0.64447,0.03273 -1.34762,0.07787 -2.02032,0.125282"
             style="fill:#80ad99;fill-opacity:1;fill-rule:nonzero;stroke:none;stroke-width:0.0112867"
             id="path185" />
          <path
             d="m 150.7307,273.19589 c 1.38261,1.56433 3.2404,2.54176 5.6309,2.96274 L 272.93018,67.806993 c -1.20542,0.414221 -2.36907,0.723474 -3.22686,0.760721 -1.40632,0.06095 -3.26861,0.202031 -4.42775,0.296838 L 150.7307,273.19589 m 6.75167,7.25281 c -0.0609,0 -0.12077,-0.004 -0.18172,-0.008 -4.78328,-0.42098 -8.39952,-2.41308 -10.7494,-5.92098 -0.43228,-0.64559 -0.46615,-1.47967 -0.0858,-2.158 L 262.21011,65.88939 c 0.33409,-0.594807 0.94018,-0.987582 1.61964,-1.046273 0.1377,-0.01242 3.41421,-0.300225 5.69412,-0.399547 1.12641,-0.04966 4.63543,-1.460493 7.23926,-2.739272 0.81263,-0.398418 1.7878,-0.223475 2.4097,0.432279 0.62076,0.655755 0.74379,1.638823 0.30248,2.42776 L 159.28373,279.39227 c -0.36795,0.65575 -1.0587,1.05643 -1.80136,1.05643"
             style="fill:#371a45;fill-opacity:1;fill-rule:nonzero;stroke:none;stroke-width:0.0112867"
             id="path187" />
          <path
             d="m 267.25863,91.670366 c -1.39502,0 -2.75507,-0.706548 -3.53159,-1.985323 -1.57223,-2.584638 -6.92775,-4.402926 -9.27424,-4.878085 -2.23137,-0.451473 -3.68058,-2.62528 -3.23363,-4.857787 0.44695,-2.231367 2.6106,-3.680573 4.84424,-3.240393 1.09818,0.216703 10.83969,2.305863 14.71891,8.688465 1.18397,1.948082 0.56434,4.487575 -1.38373,5.671546 -0.66931,0.407442 -1.40971,0.601577 -2.13996,0.601577"
             style="fill:#ffffff;fill-opacity:1;fill-rule:nonzero;stroke:none;stroke-width:0.0112867"
             id="path189" />
          <path
             d="m 255.26657,78.6941 c -0.96276,0 -1.82732,0.681714 -2.02371,1.661399 -0.22234,1.112865 0.50339,2.202019 1.61964,2.428882 2.24718,0.45485 8.5361,2.388263 10.62752,5.828427 0.3781,0.621899 1.03949,0.993225 1.76861,0.993225 0.37472,0 0.74379,-0.103798 1.06772,-0.301346 0.47179,-0.286688 0.80248,-0.738149 0.93341,-1.274261 0.13092,-0.536123 0.0451,-1.090292 -0.24154,-1.560949 -3.47854,-5.724594 -12.95369,-7.656867 -13.35549,-7.735873 -0.13318,-0.02596 -0.26524,-0.03951 -0.39616,-0.0395 z m 11.99206,15.0406 c -2.18396,0 -4.16364,-1.112865 -5.29569,-2.977423 -0.99888,-1.64221 -5.28555,-3.393894 -7.91985,-3.926628 -3.34198,-0.677198 -5.51691,-3.945812 -4.84874,-7.285532 0.66929,-3.338595 3.92887,-5.520305 7.26859,-4.862294 1.94131,0.384875 11.8352,2.653492 16.0835,9.642186 0.85891,1.413096 1.11624,3.076741 0.72459,4.683961 -0.39165,1.606094 -1.38712,2.965005 -2.80021,3.82392 -0.96953,0.590297 -2.08126,0.90181 -3.21219,0.90181"
             style="fill:#371a45;fill-opacity:1;fill-rule:nonzero;stroke:none;stroke-width:0.0112867"
             id="path191" />
          <path
             d="m 233.25758,149.68829 c -1.39502,0 -2.75506,-0.70655 -3.53159,-1.98533 -1.57223,-2.58463 -6.92775,-4.40292 -9.27537,-4.87809 -2.23137,-0.45146 -3.67946,-2.62527 -3.23362,-4.85778 0.44694,-2.23249 2.61399,-3.68396 4.84535,-3.24039 1.09706,0.2167 10.83971,2.30586 14.71893,8.68846 1.18397,1.94809 0.56434,4.48758 -1.38374,5.67155 -0.6693,0.40744 -1.40971,0.60158 -2.13996,0.60158"
             style="fill:#ffffff;fill-opacity:1;fill-rule:nonzero;stroke:none;stroke-width:0.0112867"
             id="path193" />
          <path
             d="m 221.261,136.71201 c -0.9605,0 -1.82393,0.68059 -2.02031,1.66141 -0.22235,1.11286 0.50451,2.20202 1.61964,2.42888 2.2483,0.45485 8.53835,2.38939 10.62864,5.82843 0.3781,0.6219 1.0395,0.99322 1.76861,0.99322 0.37473,0 0.74493,-0.10379 1.06772,-0.30134 0.47178,-0.28555 0.80248,-0.73928 0.93341,-1.27427 0.13092,-0.53612 0.0451,-1.09028 -0.24153,-1.56094 -3.47855,-5.7246 -12.9537,-7.65687 -13.3555,-7.73588 -0.13431,-0.0271 -0.26862,-0.0395 -0.40068,-0.0395 z m 11.99658,15.04061 c -2.18396,0 -4.16252,-1.11286 -5.29569,-2.97742 -0.99774,-1.64109 -5.28554,-3.3939 -7.92098,-3.92663 -3.34084,-0.6772 -5.51578,-3.94581 -4.84762,-7.28553 0.6693,-3.34424 3.93341,-5.52596 7.27087,-4.86117 1.93905,0.38375 11.83293,2.65237 16.08122,9.64106 0.85892,1.4131 1.11626,3.07674 0.72461,4.68284 -0.39165,1.60722 -1.38601,2.96613 -2.80022,3.82504 -0.96953,0.5903 -2.08127,0.90181 -3.21219,0.90181"
             style="fill:#371a45;fill-opacity:1;fill-rule:nonzero;stroke:none;stroke-width:0.0112867"
             id="path195" />
          <path
             d="m 206.14252,197.66673 c -1.6817,0 -3.26183,-1.03498 -3.8747,-2.70542 -1.0553,-2.87245 -5.94694,-5.66815 -8.15123,-6.57334 -2.10947,-0.86568 -3.11737,-3.27764 -2.25168,-5.38712 0.86569,-2.10835 3.27538,-3.1185 5.38711,-2.25169 1.035,0.42551 10.19073,4.35439 12.76522,11.36454 0.78667,2.13994 -0.31039,4.51239 -2.45034,5.29908 -0.47066,0.17269 -0.95146,0.25395 -1.42438,0.25395"
             style="fill:#ffffff;fill-opacity:1;fill-rule:nonzero;stroke:none;stroke-width:0.0112867"
             id="path197" />
          <path
             d="m 195.68318,182.5031 c -0.26974,0 -0.5395,0.0531 -0.79571,0.16027 -0.5079,0.21332 -0.90292,0.61061 -1.11286,1.12077 -0.43228,1.05304 0.0733,2.26185 1.12528,2.69413 2.11287,0.86682 7.90291,3.95371 9.30584,7.77085 0.29685,0.81039 1.07563,1.35441 1.93793,1.35441 0.24041,0 0.47968,-0.044 0.71105,-0.12867 0.51693,-0.18962 0.93002,-0.56997 1.1614,-1.06998 0.23138,-0.50112 0.25395,-1.06207 0.0632,-1.579 -2.30812,-6.28554 -11.23248,-10.01126 -11.61058,-10.16702 -0.25395,-0.1038 -0.52031,-0.15576 -0.78555,-0.15576 z m 10.46048,17.22796 c -2.58577,0 -4.92211,-1.63093 -5.81376,-4.05868 -0.67156,-1.82618 -4.52708,-4.36116 -6.9966,-5.37471 -3.15913,-1.29683 -4.6738,-4.92098 -3.37809,-8.08012 0.62754,-1.53047 1.81376,-2.7246 3.33972,-3.36229 1.52595,-0.63883 3.20993,-0.64447 4.74153,-0.0147 1.82956,0.75055 11.10042,4.88711 13.9187,12.56091 0.56997,1.55305 0.50225,3.23475 -0.19188,4.73589 -0.69525,1.50112 -1.93227,2.6422 -3.48532,3.2133 -0.68735,0.25282 -1.40632,0.38037 -2.1343,0.38037"
             style="fill:#371a45;fill-opacity:1;fill-rule:nonzero;stroke:none;stroke-width:0.0112867"
             id="path199" />
          <path
             d="m 270.78232,85.397243 c -0.26184,-0.431152 -0.5519,-0.83972 -0.86117,-1.231367 -0.33521,0.575616 -0.81489,1.077874 -1.42325,1.448075 -0.67042,0.407442 -1.40969,0.601577 -2.13994,0.601577 -1.39504,0 -2.75507,-0.706548 -3.53273,-1.985324 -1.5711,-2.584649 -6.92661,-4.402925 -9.2731,-4.878092 -0.66592,-0.134311 -1.26073,-0.425507 -1.75734,-0.822797 -0.27088,0.422121 -0.47178,0.898418 -0.57562,1.419856 -0.44695,2.232507 1.00226,4.405188 3.23363,4.857787 2.34649,0.475159 7.70201,2.293447 9.27424,4.878085 0.77652,1.278775 2.13657,1.985323 3.53159,1.985323 0.73025,0 1.47065,-0.194135 2.13996,-0.601577 1.94807,-1.183971 2.5677,-3.723464 1.38373,-5.671546"
             style="fill:#371a45;fill-opacity:1;fill-rule:nonzero;stroke:none;stroke-width:0.0112867"
             id="path201" />
          <path
             d="m 235.9201,142.18378 c -0.33521,0.57563 -0.81489,1.07789 -1.42324,1.44809 -0.67043,0.40744 -1.4097,0.60158 -2.14108,0.60158 -1.3939,0 -2.75394,-0.70655 -3.53159,-1.98532 -1.5711,-2.58465 -6.92662,-4.40293 -9.27424,-4.8781 -0.66592,-0.13431 -1.25959,-0.4255 -1.75621,-0.8228 -0.27088,0.42212 -0.47291,0.89842 -0.57674,1.41986 -0.44584,2.23251 1.00225,4.40632 3.23362,4.85778 2.34762,0.47517 7.70314,2.29346 9.27537,4.87809 0.77653,1.27878 2.13657,1.98533 3.53159,1.98533 0.73025,0 1.47066,-0.19414 2.13996,-0.60158 1.94808,-1.18397 2.56771,-3.7246 1.38374,-5.67155 -0.26185,-0.43002 -0.55192,-0.83973 -0.86118,-1.23138"
             style="fill:#371a45;fill-opacity:1;fill-rule:nonzero;stroke:none;stroke-width:0.0112867"
             id="path203" />
          <path
             d="m 208.94049,189.90715 c -0.4526,0.9176 -1.24041,1.67042 -2.27539,2.05079 -0.46953,0.17269 -0.95034,0.25395 -1.42325,0.25395 -1.68171,0 -3.26185,-1.03499 -3.87584,-2.70542 -1.05417,-2.87245 -5.94581,-5.66815 -8.15009,-6.57334 -0.37132,-0.15237 -0.70541,-0.3544 -1.00451,-0.59142 -0.13205,0.20541 -0.25057,0.42437 -0.3465,0.65914 -0.86569,2.10948 0.14221,4.52144 2.25168,5.38712 2.20429,0.90519 7.09593,3.70089 8.15123,6.57334 0.61287,1.67044 2.193,2.70542 3.8747,2.70542 0.47292,0 0.95372,-0.0813 1.42438,-0.25395 2.13995,-0.78669 3.23701,-3.15914 2.45034,-5.29908 -0.28442,-0.77427 -0.65237,-1.5079 -1.07675,-2.20655"
             style="fill:#371a45;fill-opacity:1;fill-rule:nonzero;stroke:none;stroke-width:0.0112867"
             id="path205" />
          <path
             d="m 212.89421,253.66095 c -6.45145,20.85435 -35.68163,5.70314 -35.68163,5.70314 0,0 -14.93903,-1.91759 -17.74037,-7.96273 -2.80135,-6.04513 1.84537,-12.38485 3.09592,-12.38485 0,0 0.66141,-4.35326 5.1614,-4.64784 l 10.32052,3.69187 1.91647,-2.58352 c 0,0 4.42324,3.53949 5.23814,6.34084 l 5.47853,-1.03273 c 0,0 5.20767,-15.62863 11.40066,-20.64216 0,0 17.39837,12.23812 10.81036,33.51798"
             style="fill:#ffcda4;fill-opacity:1;fill-rule:nonzero;stroke:none;stroke-width:0.0112867"
             id="path207" />
          <path
             d="m 162.57152,241.08085 h -0.004 0.004 m 0.56659,-0.0823 c -1.04965,0.86343 -3.73926,5.33521 -1.79231,9.53497 1.68735,3.6422 10.79003,6.09253 16.13088,6.78327 0.23928,0.0305 0.47179,0.10273 0.68623,0.21446 0.15576,0.0801 15.77535,8.04738 25.68843,3.89276 3.46387,-1.45146 5.77763,-4.19073 7.07109,-8.37357 v 0 c 5.08012,-16.4108 -4.98306,-26.94915 -8.72684,-30.17939 -4.27087,4.60044 -8.27651,14.73248 -9.55416,18.56655 -0.23589,0.71106 -0.83973,1.23815 -1.57562,1.37697 l -5.47967,1.0316 c -1.04514,0.19752 -2.06771,-0.43227 -2.36455,-1.45259 -0.30474,-1.05192 -1.61964,-2.59931 -2.93792,-3.87809 l -0.57562,0.77539 c -0.54062,0.73025 -1.49661,1.01919 -2.35326,0.71332 l -9.87808,-3.53272 c -2.31038,0.35891 -2.79458,2.44242 -2.8702,2.87696 -0.13995,0.79345 -0.72347,1.43002 -1.4684,1.65011 m 34.02362,25.74373 c -9.22344,0 -18.65007,-4.42775 -20.5688,-5.37922 -2.76635,-0.38939 -15.97061,-2.56997 -18.99317,-9.09365 -2.62754,-5.67042 0.2167,-10.88486 1.15123,-12.3476 0.67946,-1.06321 1.36569,-1.84425 2.05417,-2.33747 0.7167,-2.13995 2.69865,-5.00676 6.78892,-5.27538 0.28218,-0.0192 0.56434,0.0215 0.83071,0.11624 l 8.8792,3.17606 1.00565,-1.35327 c 0.33408,-0.45034 0.83634,-0.74604 1.39165,-0.81715 0.55643,-0.0745 1.11738,0.0846 1.55529,0.43453 0.41647,0.33408 3.52934,2.87359 5.14559,5.6264 l 2.72573,-0.51354 c 1.3702,-3.8194 6.02706,-15.88145 11.65685,-20.43901 0.71671,-0.58126 1.7325,-0.61512 2.48645,-0.0846 0.18623,0.13092 18.54623,13.36227 11.59479,35.81594 -1.65463,5.351 -4.82618,9.04062 -9.42775,10.96499 -2.5869,1.08239 -5.42211,1.50676 -8.27651,1.50676"
             style="fill:#371a45;fill-opacity:1;fill-rule:nonzero;stroke:none;stroke-width:0.0112867"
             id="path209" />
          <path
             d="m 197.16286,262.62368 c -9.01803,0 -18.87692,-5.0282 -18.99995,-5.09253 -0.21444,-0.11174 -0.44695,-0.18398 -0.68623,-0.21446 -5.34085,-0.69074 -14.44353,-3.14107 -16.13088,-6.78327 -1.94695,-4.19976 0.74266,-8.67154 1.79231,-9.53497 0.74493,-0.22009 1.32845,-0.85665 1.4684,-1.6501 0.0756,-0.43454 0.55982,-2.51806 2.8702,-2.87697 l 0.48757,0.17381 c -1.3036,2.03047 -0.9729,4.85327 -0.9729,4.85327 0,0 -3.24379,2.06432 -3.67607,7.37244 -0.4334,5.30699 14.23022,6.63429 14.23022,6.63429 0,0 7.81826,3.63543 17.61846,3.63543 2.04064,0 4.1693,-0.15801 6.32956,-0.5395 12.19862,-2.15236 7.07674,-27.62973 2.12302,-27.62973 -0.13543,0 -0.27088,0.0192 -0.40631,0.0576 -3.56546,1.03837 -7.07109,5.5237 -9.63429,7.81375 1.78555,-4.68847 5.11285,-12.1941 8.61962,-15.97174 3.74378,3.23024 13.80696,13.76859 8.72684,30.17938 v 0 c -1.29346,4.18284 -3.60722,6.92211 -7.07109,8.37358 -2.0474,0.85891 -4.33972,1.19976 -6.68848,1.19976"
             style="fill:#c39787;fill-opacity:1;fill-rule:nonzero;stroke:none;stroke-width:0.0112867"
             id="path211" />
          <path
             d="m 197.17189,264.68011 c -9.70313,0 -19.95931,-5.31602 -19.95931,-5.31602 0,0 -14.93903,-1.91759 -17.74037,-7.96273 -2.80135,-6.04513 1.84537,-12.38485 3.09592,-12.38485 0,0 0.66141,-4.35326 5.1614,-4.64784 l 1.99999,0.71558 c -0.78893,0.36907 -1.35666,0.92663 -1.76524,1.56094 l -0.48757,-0.17381 c -2.31038,0.35891 -2.79458,2.44243 -2.8702,2.87697 -0.13995,0.79345 -0.72347,1.43001 -1.4684,1.6501 -1.04965,0.86343 -3.73926,5.33521 -1.79231,9.53497 1.68735,3.6422 10.79003,6.09253 16.13088,6.78327 0.23928,0.0305 0.47179,0.10273 0.68623,0.21446 0.12303,0.0643 9.98192,5.09253 18.99995,5.09253 2.34876,0 4.64108,-0.34085 6.68848,-1.19977 3.46387,-1.45146 5.77763,-4.19073 7.07109,-8.37357 v 0 c 5.08012,-16.4108 -4.98306,-26.94915 -8.72684,-30.17938 -3.50677,3.77764 -6.83407,11.28326 -8.61962,15.97174 -0.91648,0.81828 -1.71219,1.35553 -2.34876,1.35553 -0.1128,0 -0.22009,-0.0169 -0.32279,-0.0519 1.04966,-2.97742 5.73248,-15.59363 11.17943,-20.00334 0,0 17.39837,12.23813 10.81036,33.51798 -2.6298,8.50112 -9.04513,11.01916 -15.72232,11.01916 m -34.60376,-23.59926 h 0.004 -0.004"
             style="fill:#371a45;fill-opacity:1;fill-rule:nonzero;stroke:none;stroke-width:0.0112867"
             id="path213" />
          <path
             d="m 181.92814,237.24451 c -0.90632,-0.26975 -1.81151,-0.53047 -2.69864,-0.77313 l 0.73702,-0.99436 c 0,0 0.90067,0.72235 1.96162,1.76749"
             style="fill:#371a45;fill-opacity:1;fill-rule:nonzero;stroke:none;stroke-width:0.0112867"
             id="path215" />
          <path
             d="m 135.26798,129.66915 c -5.74604,-1.17607 -11.54625,4.27312 -12.95595,12.16927 -1.40971,7.89728 2.10609,15.25165 7.85099,16.42773 5.74604,1.17607 11.54625,-4.27201 12.95595,-12.16928 1.40971,-7.89726 -2.10609,-15.25165 -7.85099,-16.42772"
             style="fill:#371a45;fill-opacity:1;fill-rule:nonzero;stroke:none;stroke-width:0.0112867"
             id="path217" />
          <path
             d="m 134.57724,133.22557 c -1.84876,0.52031 -2.82279,3.08352 -2.17382,5.72347 0.64899,2.64107 2.67381,4.3589 4.52257,3.83746 1.84989,-0.52032 2.82279,-3.08352 2.17494,-5.72347 -0.64898,-2.63995 -2.67381,-4.3589 -4.52369,-3.83746"
             style="fill:#ffffff;fill-opacity:1;fill-rule:nonzero;stroke:none;stroke-width:0.0112867"
             id="path219" />
          <path
             d="m 128.87747,154.09234 c -0.76636,0 -1.60383,-0.5948 -2.08577,-1.57223 -0.63205,-1.27765 -0.41761,-2.7246 0.47742,-3.2325 0.21107,-0.11851 0.44131,-0.17494 0.6772,-0.17494 0.7675,0 1.60497,0.5948 2.08691,1.57223 0.63093,1.27765 0.41761,2.7246 -0.47743,3.23137 -0.21106,0.11963 -0.4413,0.17607 -0.67833,0.17607"
             style="fill:#87768f;fill-opacity:1;fill-rule:nonzero;stroke:none;stroke-width:0.0112867"
             id="path221" />
          <path
             d="m 188.13692,141.34407 c 5.8386,0.56094 9.78666,7.47063 8.8194,15.43336 -0.96727,7.96274 -6.48418,13.96499 -12.32278,13.40404 -5.83745,-0.55982 -9.78553,-7.46951 -8.81825,-15.43224 0.96726,-7.96274 6.48418,-13.96499 12.32163,-13.40516"
             style="fill:#371a45;fill-opacity:1;fill-rule:nonzero;stroke:none;stroke-width:0.0112867"
             id="path223" />
          <path
             d="m 187.75431,144.94676 c 1.61512,1.04064 1.79457,3.77539 0.40067,6.10947 -1.3939,2.33521 -3.83295,3.38374 -5.4492,2.3431 -1.61511,-1.03949 -1.79457,-3.77537 -0.40067,-6.10946 1.3939,-2.33408 3.83408,-3.3826 5.4492,-2.34311"
             style="fill:#ffffff;fill-opacity:1;fill-rule:nonzero;stroke:none;stroke-width:0.0112867"
             id="path225" />
          <path
             d="m 187.57146,166.63858 c -0.41986,0 -0.80135,-0.14221 -1.08126,-0.43679 -0.70654,-0.74718 -0.48758,-2.19413 0.49098,-3.23024 0.59255,-0.62754 1.32617,-0.96163 1.97064,-0.96163 0.41987,0 0.80248,0.14222 1.08126,0.43681 0.70768,0.74716 0.48759,2.19299 -0.49096,3.23023 -0.59143,0.62754 -1.32619,0.96162 -1.97066,0.96162"
             style="fill:#87768f;fill-opacity:1;fill-rule:nonzero;stroke:none;stroke-width:0.0112867"
             id="path227" />
        </g>
      </g>
    </g>
  </g>
</svg>
